<svg width="96" height="96" viewBox="0 0 96 96" fill="none" xmlns="http://www.w3.org/2000/svg">
<g clip-path="url(#clip0)">
<path d="M62.4617 81.52C62.4617 88.0913 58.0283 93.624 51.9917 95.2954C50.7752 95.6323 49.4941 95.8125 48.1714 95.8125C40.2781 95.8125 33.8789 89.4141 33.8789 81.52L48.1941 74.1636L62.4617 81.52Z" fill="#E58E13"/>
<path d="M61.7708 85.9285C60.2993 90.4695 56.616 94.0159 51.9922 95.2954C49.0852 94.4912 46.5503 92.792 44.7031 90.5134C43.2141 88.6758 44.5574 85.9285 46.9224 85.9285H61.7708Z" fill="#F7D360"/>
<path d="M85.0706 67.2297L54.3652 73.8699L11.2695 67.2297C14.6511 67.2297 16.5635 65.4609 17.6489 62.5276C22.8997 48.3669 8.91479 7.09644 48.1711 7.09644C87.4275 7.09644 73.4404 48.3669 78.6912 62.5276C79.7788 65.4609 81.6904 67.2297 85.0706 67.2297Z" fill="#F7D360"/>
<path d="M92.2156 74.3753C92.2156 78.3208 89.0164 81.5201 85.0708 81.5201H11.2698C9.29736 81.5201 7.51025 80.721 6.21753 79.4275C4.92407 78.1348 4.125 76.3477 4.125 74.3753C4.125 70.429 7.32422 67.2298 11.2698 67.2298H85.0708C87.0432 67.2298 88.8303 68.0296 90.1231 69.3223C91.4165 70.6158 92.2156 72.4021 92.2156 74.3753Z" fill="#E58E13"/>
<path d="M78.6917 62.5276H40.334C36.1987 62.5276 32.8919 59.105 33.02 54.9712C33.5606 37.4839 30.7715 7.42896 47.8845 7.09863C0.909177 7.3418 30.9377 67.2297 11.2715 67.2297H85.0711C81.6909 67.2297 79.7793 65.4609 78.6917 62.5276Z" fill="#E58E13"/>
<path d="M92.2153 74.3753C92.2153 78.3208 89.0161 81.5201 85.0706 81.5201H31.918C29.9448 81.5201 28.1577 80.721 26.865 79.4275C25.5723 78.1348 24.7725 76.3477 24.7725 74.3753C24.7725 70.429 27.9717 67.2298 31.918 67.2298H85.0706C87.043 67.2298 88.8301 68.0296 90.1228 69.3223C91.4163 70.6158 92.2153 72.4021 92.2153 74.3753Z" fill="#F7D360"/>
<path d="M55.4343 7.64356C55.4497 7.46338 55.4556 7.28101 55.4556 7.09644C55.4556 3.07471 52.1941 -0.1875 48.1716 -0.1875C44.1477 -0.1875 40.8877 3.07471 40.8877 7.09644C40.8877 7.28101 40.8936 7.46338 40.9089 7.64356" fill="#E58E13"/>
<path d="M83.6458 31.2598C82.8343 31.2598 82.1766 30.6013 82.1766 29.7906C82.1766 22.99 80.4283 17.1863 76.9808 12.5406C74.407 9.07253 71.7901 7.57986 71.7644 7.56448C71.0584 7.16824 70.8042 6.27468 71.1983 5.56716C71.5923 4.86037 72.4815 4.60403 73.1897 4.99514C73.315 5.06472 76.2901 6.73464 79.2366 10.6502C81.9187 14.2141 85.1158 20.428 85.1158 29.7906C85.1158 30.6013 84.4573 31.2598 83.6458 31.2598Z" fill="#E6E6E6"/>
<path d="M90.1107 22.8355C89.2992 22.8355 88.6415 22.1777 88.6415 21.3662C88.6415 11.9868 83.0868 8.25806 82.8502 8.10425C82.1727 7.6626 81.9764 6.75513 82.4137 6.07545C82.8517 5.39576 83.7526 5.19507 84.4344 5.6294C84.7267 5.8147 91.5799 10.3037 91.5799 21.3662C91.5799 22.1777 90.9222 22.8355 90.1107 22.8355Z" fill="#E6E6E6"/>
<path d="M12.6938 31.2598C11.8823 31.2598 11.2246 30.6013 11.2246 29.7905C11.2246 20.428 14.4216 14.2141 17.103 10.6502C20.0503 6.73463 23.0247 5.06397 23.1499 4.99512C23.8604 4.60255 24.7546 4.86036 25.1472 5.57081C25.5391 6.27979 25.2827 7.17188 24.5752 7.56519C24.5173 7.59815 21.918 9.09449 19.3596 12.5405C15.9114 17.1863 14.1638 22.99 14.1638 29.7905C14.1631 30.6013 13.5054 31.2598 12.6938 31.2598Z" fill="#E6E6E6"/>
<path d="M6.229 22.8354C5.41748 22.8354 4.75977 22.1777 4.75977 21.3662C4.75977 10.3037 11.6138 5.81469 11.9053 5.62939C12.5901 5.1936 13.4983 5.39575 13.9341 6.07983C14.3684 6.76245 14.1692 7.66772 13.4888 8.10425C13.2449 8.26391 7.69824 11.9941 7.69824 21.3662C7.69824 22.1777 7.04053 22.8354 6.229 22.8354Z" fill="#E6E6E6"/>
</g>
<defs>
<clipPath id="clip0">
<rect width="96" height="96" fill="white"/>
</clipPath>
</defs>
</svg>
