<svg width="99" height="99" viewBox="0 0 99 99" fill="none" xmlns="http://www.w3.org/2000/svg">
<g clip-path="url(#clip0)">
<path d="M47.6112 82.4999H9.89857C6.25355 82.4999 3.29883 79.5449 3.29883 75.9001V69.3H53.9507L47.6112 82.4999Z" fill="#D3DCFB"/>
<path d="M89.1051 29.7V57.4274V75.8998H9.89857C6.25355 75.8998 3.29883 72.9448 3.29883 69.2998V29.7L49.502 13.1999L89.1051 29.7Z" fill="#EBF5FC"/>
<path d="M14.9544 42.9H11.4482C10.594 42.9 9.90137 42.2074 9.90137 41.3532V37.847C9.90137 36.9927 10.594 36.3001 11.4482 36.3001H14.9544C15.8087 36.3001 16.5013 36.9927 16.5013 37.847V41.3532C16.5013 42.2074 15.8087 42.9 14.9544 42.9Z" fill="#3C58A0"/>
<path d="M28.1546 42.9H24.6484C23.7942 42.9 23.1016 42.2074 23.1016 41.3532V37.847C23.1016 36.9927 23.7942 36.3001 24.6484 36.3001H28.1546C29.0089 36.3001 29.7015 36.9927 29.7015 37.847V41.3532C29.7015 42.2074 29.0089 42.9 28.1546 42.9Z" fill="#3C58A0"/>
<path d="M41.3538 42.9H37.8477C36.9934 42.9 36.3008 42.2074 36.3008 41.3532V37.847C36.3008 36.9927 36.9934 36.3001 37.8477 36.3001H41.3538C42.2081 36.3001 42.9007 36.9927 42.9007 37.847V41.3532C42.9007 42.2074 42.2083 42.9 41.3538 42.9Z" fill="#3C58A0"/>
<path d="M54.554 42.9H51.0479C50.1936 42.9 49.501 42.2074 49.501 41.3532V37.847C49.501 36.9927 50.1936 36.3001 51.0479 36.3001H54.554C55.4083 36.3001 56.1009 36.9927 56.1009 37.847V41.3532C56.1009 42.2074 55.4083 42.9 54.554 42.9Z" fill="#3C58A0"/>
<path d="M67.7523 42.9H64.2461C63.3918 42.9 62.6992 42.2074 62.6992 41.3532V37.847C62.6992 36.9927 63.3918 36.3001 64.2461 36.3001H67.7523C68.6065 36.3001 69.2992 36.9927 69.2992 37.847V41.3532C69.2992 42.2074 68.6067 42.9 67.7523 42.9Z" fill="#3C58A0"/>
<path d="M80.9525 42.9H77.4463C76.592 42.9 75.8994 42.2074 75.8994 41.3532V37.847C75.8994 36.9927 76.592 36.3001 77.4463 36.3001H80.9525C81.8067 36.3001 82.4993 36.9927 82.4993 37.847V41.3532C82.4993 42.2074 81.8067 42.9 80.9525 42.9Z" fill="#3C58A0"/>
<path d="M14.9544 56.0999H11.4482C10.594 56.0999 9.90137 55.4073 9.90137 54.5531V51.0469C9.90137 50.1926 10.594 49.5 11.4482 49.5H14.9544C15.8087 49.5 16.5013 50.1926 16.5013 51.0469V54.5531C16.5013 55.4075 15.8087 56.0999 14.9544 56.0999Z" fill="#3C58A0"/>
<path d="M28.1546 56.0999H24.6484C23.7942 56.0999 23.1016 55.4073 23.1016 54.5531V51.0469C23.1016 50.1926 23.7942 49.5 24.6484 49.5H28.1546C29.0089 49.5 29.7015 50.1926 29.7015 51.0469V54.5531C29.7015 55.4075 29.0089 56.0999 28.1546 56.0999Z" fill="#3C58A0"/>
<path d="M41.3538 56.0999H37.8477C36.9934 56.0999 36.3008 55.4073 36.3008 54.5531V51.0469C36.3008 50.1926 36.9934 49.5 37.8477 49.5H41.3538C42.2081 49.5 42.9007 50.1926 42.9007 51.0469V54.5531C42.9007 55.4075 42.2083 56.0999 41.3538 56.0999Z" fill="#3C58A0"/>
<path d="M56.1009 56.0999V51.1499C56.1009 50.2386 55.3623 49.5 54.451 49.5H51.1509C50.2396 49.5 49.501 50.2386 49.501 51.1499V54.45C49.501 55.3613 50.2398 56.0999 51.1509 56.0999H56.1009Z" fill="#3C58A0"/>
<path d="M14.9544 69.2999H11.4482C10.594 69.2999 9.90137 68.6073 9.90137 67.7531V64.2469C9.90137 63.3926 10.594 62.7 11.4482 62.7H14.9544C15.8087 62.7 16.5013 63.3926 16.5013 64.2469V67.7531C16.5013 68.6073 15.8087 69.2999 14.9544 69.2999Z" fill="#3C58A0"/>
<path d="M28.1546 69.2999H24.6484C23.7942 69.2999 23.1016 68.6073 23.1016 67.7531V64.2469C23.1016 63.3926 23.7942 62.7 24.6484 62.7H28.1546C29.0089 62.7 29.7015 63.3926 29.7015 64.2469V67.7531C29.7015 68.6073 29.0089 69.2999 28.1546 69.2999Z" fill="#3C58A0"/>
<path d="M41.3538 69.2999H37.8477C36.9934 69.2999 36.3008 68.6073 36.3008 67.7531V64.2469C36.3008 63.3926 36.9934 62.7 37.8477 62.7H41.3538C42.2081 62.7 42.9007 63.3926 42.9007 64.2469V67.7531C42.9007 68.6073 42.2083 69.2999 41.3538 69.2999Z" fill="#3C58A0"/>
<path d="M80.9053 36.2999H77.4925C77.286 36.2999 77.0894 36.3405 76.9082 36.4119C77.4989 36.6451 77.9173 37.2197 77.9173 37.8934V41.3062C77.9173 41.9799 77.4987 42.5545 76.9082 42.7877C77.0894 42.8593 77.286 42.8999 77.4925 42.8999H80.9053C81.7855 42.8999 82.499 42.1864 82.499 41.3064V37.8936C82.4988 37.0134 81.7853 36.2999 80.9053 36.2999Z" fill="#2A428C"/>
<path d="M67.7051 36.2999H64.2923C64.0858 36.2999 63.8892 36.3405 63.708 36.4119C64.2987 36.6451 64.7171 37.2197 64.7171 37.8934V41.3062C64.7171 41.9799 64.2985 42.5545 63.708 42.7877C63.8892 42.8593 64.0858 42.8999 64.2923 42.8999H67.7051C68.5853 42.8999 69.2986 42.1864 69.2986 41.3064V37.8936C69.2986 37.0134 68.5853 36.2999 67.7051 36.2999Z" fill="#2A428C"/>
<path d="M54.5079 36.2999H51.0951C50.8886 36.2999 50.6919 36.3405 50.5107 36.4119C51.1015 36.6451 51.5201 37.2197 51.5201 37.8934V41.3062C51.5201 41.9799 51.1015 42.5545 50.5107 42.7877C50.6919 42.8593 50.8886 42.8999 51.0951 42.8999H54.5079C55.388 42.8999 56.1015 42.1864 56.1015 41.3064V37.8936C56.1013 37.0134 55.3878 36.2999 54.5079 36.2999Z" fill="#2A428C"/>
<path d="M41.3077 36.2999H37.8949C37.6884 36.2999 37.4917 36.3405 37.3105 36.4119C37.9013 36.6451 38.3199 37.2197 38.3199 37.8934V41.3062C38.3199 41.9799 37.9013 42.5545 37.3105 42.7877C37.4917 42.8593 37.6884 42.8999 37.8949 42.8999H41.3077C42.1879 42.8999 42.9013 42.1864 42.9013 41.3064V37.8936C42.9012 37.0134 42.1879 36.2999 41.3077 36.2999Z" fill="#2A428C"/>
<path d="M28.1075 36.2999H24.6947C24.4882 36.2999 24.2915 36.3405 24.1104 36.4119C24.7011 36.6451 25.1195 37.2197 25.1195 37.8934V41.3062C25.1195 41.9799 24.7009 42.5545 24.1104 42.7877C24.2915 42.8593 24.4882 42.8999 24.6947 42.8999H28.1075C28.9876 42.8999 29.7011 42.1864 29.7011 41.3064V37.8936C29.7011 37.0134 28.9876 36.2999 28.1075 36.2999Z" fill="#2A428C"/>
<path d="M14.9073 36.2999H11.4945C11.288 36.2999 11.0913 36.3405 10.9102 36.4119C11.5009 36.6451 11.9195 37.2197 11.9195 37.8934V41.3062C11.9195 41.9799 11.5009 42.5545 10.9102 42.7877C11.0913 42.8593 11.288 42.8999 11.4945 42.8999H14.9073C15.7875 42.8999 16.5009 42.1864 16.5009 41.3064V37.8936C16.5008 37.0134 15.7873 36.2999 14.9073 36.2999Z" fill="#2A428C"/>
<path d="M14.9073 49.5H11.4945C11.288 49.5 11.0913 49.5406 10.9102 49.612C11.5009 49.8451 11.9195 50.4198 11.9195 51.0935V54.5065C11.9195 55.1801 11.5009 55.7548 10.9102 55.988C11.0913 56.0595 11.288 56.1001 11.4945 56.1001H14.9073C15.7875 56.1001 16.5009 55.3866 16.5009 54.5067V51.0937C16.5008 50.2135 15.7873 49.5 14.9073 49.5Z" fill="#2A428C"/>
<path d="M14.9073 62.7001H11.4945C11.288 62.7001 11.0913 62.7407 10.9102 62.812C11.5009 63.0452 11.9195 63.6199 11.9195 64.2935V67.7065C11.9195 68.3802 11.5009 68.9549 10.9102 69.1881C11.0913 69.2596 11.288 69.3002 11.4945 69.3002H14.9073C15.7875 69.3002 16.5009 68.5867 16.5009 67.7067V64.2937C16.5008 63.4134 15.7873 62.7001 14.9073 62.7001Z" fill="#2A428C"/>
<path d="M28.1075 49.5H24.6947C24.4882 49.5 24.2915 49.5406 24.1104 49.612C24.7011 49.8451 25.1195 50.4198 25.1195 51.0935V54.5065C25.1195 55.1801 24.7009 55.7548 24.1104 55.988C24.2915 56.0595 24.4882 56.1001 24.6947 56.1001H28.1075C28.9876 56.1001 29.7011 55.3866 29.7011 54.5067V51.0937C29.7011 50.2135 28.9876 49.5 28.1075 49.5Z" fill="#2A428C"/>
<path d="M28.1075 62.7001H24.6947C24.4882 62.7001 24.2915 62.7407 24.1104 62.812C24.7011 63.0452 25.1195 63.6199 25.1195 64.2935V67.7065C25.1195 68.3802 24.7009 68.9549 24.1104 69.1881C24.2915 69.2596 24.4882 69.3002 24.6947 69.3002H28.1075C28.9876 69.3002 29.7011 68.5867 29.7011 67.7067V64.2937C29.7011 63.4134 28.9876 62.7001 28.1075 62.7001Z" fill="#2A428C"/>
<path d="M41.3077 49.5H37.8949C37.6884 49.5 37.4917 49.5406 37.3105 49.612C37.9013 49.8451 38.3199 50.4198 38.3199 51.0935V54.5065C38.3199 55.1801 37.9013 55.7548 37.3105 55.988C37.4917 56.0595 37.6884 56.1001 37.8949 56.1001H41.3077C42.1879 56.1001 42.9013 55.3866 42.9013 54.5067V51.0937C42.9012 50.2135 42.1879 49.5 41.3077 49.5Z" fill="#2A428C"/>
<path d="M56.1006 56.0999V51.0935C56.1006 50.2133 55.3871 49.5 54.5069 49.5H51.0941C50.8876 49.5 50.6909 49.5406 50.5098 49.612C51.1005 49.8451 51.5191 50.4198 51.5191 51.0935V54.5065C51.5191 55.1801 51.1005 55.7548 50.5098 55.988C50.6909 56.0595 50.8876 56.1001 51.0941 56.1001H56.1006V56.0999Z" fill="#2A428C"/>
<path d="M41.3077 62.7001H37.8949C37.6884 62.7001 37.4917 62.7407 37.3105 62.812C37.9013 63.0452 38.3199 63.6199 38.3199 64.2935V67.7065C38.3199 68.3802 37.9013 68.9549 37.3105 69.1881C37.4917 69.2596 37.6884 69.3002 37.8949 69.3002H41.3077C42.1879 69.3002 42.9013 68.5867 42.9013 67.7067V64.2937C42.9012 63.4134 42.1879 62.7001 41.3077 62.7001Z" fill="#2A428C"/>
<path d="M84.5205 27.7898V57.4273V75.8999H89.1052V57.4273V29.7L84.5205 27.7898Z" fill="#D3DCFB"/>
<path d="M89.1051 29.7V13.1998C89.1051 9.55482 86.1502 6.6001 82.5054 6.6001H9.89857C6.25355 6.6001 3.29883 9.55482 3.29883 13.1998V29.7H89.1051Z" fill="#FF4155"/>
<path d="M24.0944 14.694H19.7986C18.9733 14.694 18.3047 14.0251 18.3047 13.2001C18.3047 12.375 18.9735 11.7062 19.7986 11.7062H24.0944C24.9197 11.7062 25.5883 12.375 25.5883 13.2001C25.5883 14.0251 24.9195 14.694 24.0944 14.694Z" fill="#E80054"/>
<path d="M34.6482 14.694H30.3523C29.527 14.694 28.8584 14.0251 28.8584 13.2001C28.8584 12.375 29.5272 11.7062 30.3523 11.7062H34.6482C35.4734 11.7062 36.1421 12.375 36.1421 13.2001C36.1421 14.0251 35.4734 14.694 34.6482 14.694Z" fill="#E80054"/>
<path d="M62.0468 14.694H57.7507C56.9255 14.694 56.2568 14.0251 56.2568 13.2001C56.2568 12.375 56.9257 11.7062 57.7507 11.7062H62.0468C62.872 11.7062 63.5407 12.375 63.5407 13.2001C63.5407 14.0251 62.872 14.694 62.0468 14.694Z" fill="#E80054"/>
<path d="M72.6005 14.694H68.3044C67.4792 14.694 66.8105 14.0251 66.8105 13.2001C66.8105 12.375 67.4794 11.7062 68.3044 11.7062H72.6005C73.4258 11.7062 74.0944 12.375 74.0944 13.2001C74.0944 14.0251 73.4256 14.694 72.6005 14.694Z" fill="#E80054"/>
<path d="M31.3485 12.375C31.3485 14.6532 29.5017 16.4999 27.2236 16.4999C24.9454 16.4999 23.0986 14.6532 23.0986 12.375V4.12494C23.0984 1.84678 24.9452 0 27.2234 0C29.5015 0 31.3483 1.84678 31.3483 4.12494V12.375H31.3485Z" fill="#EBF5FC"/>
<path d="M69.3008 12.375C69.3008 14.6532 67.4541 16.4999 65.1759 16.4999C62.8978 16.4999 61.0508 14.6532 61.0508 12.375V4.12494C61.0508 1.84678 62.8976 0 65.1757 0C67.4539 0 69.3007 1.84678 69.3007 4.12494V12.375H69.3008Z" fill="#EBF5FC"/>
<path d="M65.1763 0C64.3294 0 63.5428 0.256008 62.8877 0.693774C63.9947 1.43357 64.7242 2.69369 64.7242 4.12513V12.375C64.7242 13.8062 63.9947 15.0666 62.8877 15.8064C63.5426 16.2439 64.3294 16.5001 65.1763 16.5001C67.4545 16.5001 69.3012 14.6534 69.3012 12.3752V4.12494C69.3014 1.84678 67.4547 0 65.1763 0V0Z" fill="#D3DCFB"/>
<path d="M27.2232 0C26.3763 0 25.5897 0.256008 24.9346 0.693774C26.0416 1.43357 26.7711 2.69369 26.7711 4.12513V12.375C26.7711 13.8062 26.0416 15.0666 24.9346 15.8064C25.5895 16.2439 26.3763 16.5001 27.2232 16.5001C29.5013 16.5001 31.3481 14.6534 31.3481 12.3752V4.12494C31.3483 1.84678 29.5015 0 27.2232 0V0Z" fill="#D3DCFB"/>
<path d="M82.5061 6.59991H77.9229C81.5679 6.59991 84.5226 9.55464 84.5226 13.1997V29.7H89.1056V13.1999C89.1058 9.55483 86.1509 6.59991 82.5061 6.59991Z" fill="#E80054"/>
<path d="M3.29883 21.606H89.1053V24.5939H3.29883V21.606Z" fill="#E80054"/>
<path d="M70.9521 99C84.6212 99 95.7021 87.919 95.7021 74.25C95.7021 60.581 84.6212 49.5 70.9521 49.5C57.2831 49.5 46.2021 60.581 46.2021 74.25C46.2021 87.919 57.2831 99 70.9521 99Z" fill="#4FABF7"/>
<path d="M70.9528 92.4C80.9768 92.4 89.1029 84.274 89.1029 74.25C89.1029 64.226 80.9768 56.0999 70.9528 56.0999C60.9288 56.0999 52.8027 64.226 52.8027 74.25C52.8027 84.274 60.9288 92.4 70.9528 92.4Z" fill="#EBF5FC"/>
<path d="M70.9519 72.4438C70.1266 72.4438 69.458 71.775 69.458 70.9499V62.6999C69.458 61.8748 70.1268 61.206 70.9519 61.206C71.7771 61.206 72.4458 61.8748 72.4458 62.6999V70.9499C72.4458 71.775 71.777 72.4438 70.9519 72.4438Z" fill="#3C58A0"/>
<path d="M79.2029 75.7439H74.2527C73.4274 75.7439 72.7588 75.0751 72.7588 74.25C72.7588 73.4249 73.4276 72.7561 74.2527 72.7561H79.2029C80.0281 72.7561 80.6968 73.4249 80.6968 74.25C80.6968 75.0751 80.0279 75.7439 79.2029 75.7439Z" fill="#3C58A0"/>
<path d="M70.9521 49.5C70.1796 49.5 69.4158 49.5373 68.6613 49.6065C81.2562 50.7626 91.1204 61.3535 91.1204 74.25C91.1204 87.1465 81.256 97.7374 68.6611 98.8935C69.4156 98.9627 70.1794 99 70.9519 99C84.6208 99 95.7019 87.919 95.7019 74.25C95.7019 60.581 84.621 49.5 70.9521 49.5Z" fill="#1886EA"/>
<path d="M70.9523 56.0999C70.1769 56.0999 69.4129 56.1488 68.6631 56.2432C77.6063 57.3687 84.524 65.0014 84.524 74.25C84.524 83.4986 77.6063 91.1312 68.6631 92.2568C69.4129 92.3511 70.1769 92.4 70.9523 92.4C80.9762 92.4 89.1023 84.2739 89.1023 74.25C89.1023 64.226 80.9762 56.0999 70.9523 56.0999Z" fill="#D3DCFB"/>
<path d="M70.9524 77.5501C72.775 77.5501 74.2525 76.0726 74.2525 74.25C74.2525 72.4274 72.775 70.95 70.9524 70.95C69.1298 70.95 67.6523 72.4274 67.6523 74.25C67.6523 76.0726 69.1298 77.5501 70.9524 77.5501Z" fill="#FFDD40"/>
</g>
<defs>
<clipPath id="clip0">
<rect width="99" height="99" fill="white"/>
</clipPath>
</defs>
</svg>
