<svg width="105" height="96" viewBox="0 0 105 96" fill="none" xmlns="http://www.w3.org/2000/svg">
<path d="M98.6437 2.8125V72.3956L72.8243 96H9.43262C7.73457 96 6.35645 94.74 6.35645 93.1875V2.8125C6.35645 1.26 7.73457 0 9.43262 0H95.5675C97.2655 0 98.6437 1.26 98.6437 2.8125Z" fill="#F0F7FF"/>
<path d="M98.6437 2.8125V72.3956L72.8243 96H52.499V0H95.5675C97.2655 0 98.6437 1.26 98.6437 2.8125Z" fill="#DFE7F4"/>
<path d="M72.8232 95.9999V75.208C72.8232 73.6555 74.2014 72.3955 75.8994 72.3955H98.6426V75.2061C98.6426 75.9205 98.3452 76.6424 97.6869 77.2443L78.0753 95.1768C77.5175 95.6868 76.7361 95.9999 75.8994 95.9999H72.8232Z" fill="#C0CCDD"/>
<path d="M38.1436 14.0625V46.3125C38.1436 47.865 36.7654 49.125 35.0674 49.125H24.8135C23.1154 49.125 21.7373 47.865 21.7373 46.3125V14.0625C21.7373 12.51 23.1154 11.25 24.8135 11.25H35.0674C36.7654 11.25 38.1436 12.51 38.1436 14.0625Z" fill="#BDE239"/>
<path d="M60.7021 32.8125V46.3125C60.7021 47.865 59.324 49.125 57.626 49.125H47.3721C45.674 49.125 44.2959 47.865 44.2959 46.3125V32.8125C44.2959 31.26 45.674 30 47.3721 30H57.626C59.324 30 60.7021 31.26 60.7021 32.8125Z" fill="#DF5CCB"/>
<path d="M83.2607 21.5625V46.3125C83.2607 47.865 81.8826 49.125 80.1846 49.125H69.9307C68.2326 49.125 66.8545 47.865 66.8545 46.3125V21.5625C66.8545 20.01 68.2326 18.75 69.9307 18.75H80.1846C81.8826 18.75 83.2607 20.01 83.2607 21.5625Z" fill="#FABE2C"/>
<path d="M46.3467 62.25H21.7373C20.0384 62.25 18.6611 60.9908 18.6611 59.4375C18.6611 57.8842 20.0384 56.625 21.7373 56.625H46.3467C48.0456 56.625 49.4229 57.8842 49.4229 59.4375C49.4229 60.9908 48.0456 62.25 46.3467 62.25Z" fill="#4793FF"/>
<path d="M61.7275 70.6875C61.7275 72.24 60.3494 73.5 58.6514 73.5H21.7373C20.0393 73.5 18.6611 72.24 18.6611 70.6875C18.6611 69.135 20.0393 67.875 21.7373 67.875H58.6514C60.3494 67.875 61.7275 69.135 61.7275 70.6875Z" fill="#4793FF"/>
<path d="M40.1943 84.75H21.7373C20.0384 84.75 18.6611 83.4908 18.6611 81.9375C18.6611 80.3842 20.0384 79.125 21.7373 79.125H40.1943C41.8932 79.125 43.2705 80.3842 43.2705 81.9375C43.2705 83.4908 41.8932 84.75 40.1943 84.75Z" fill="#4793FF"/>
<path d="M60.7021 32.8125V46.3125C60.7021 47.865 59.324 49.125 57.626 49.125H52.499V30H57.626C59.324 30 60.7021 31.26 60.7021 32.8125Z" fill="#C63EBA"/>
<path d="M86.3369 48.1875C86.3369 49.74 84.9588 51 83.2608 51H21.7373C20.0393 51 18.6611 49.74 18.6611 48.1875C18.6611 46.635 20.0393 45.375 21.7373 45.375H83.2608C84.9588 45.375 86.3369 46.635 86.3369 48.1875Z" fill="#DFE7F4"/>
<path d="M86.3369 48.1875C86.3369 49.74 84.9588 51 83.2607 51H52.499V45.375H83.2607C84.9588 45.375 86.3369 46.635 86.3369 48.1875Z" fill="#C0CCDD"/>
<path d="M61.7275 70.6875C61.7275 72.24 60.3494 73.5 58.6514 73.5H52.499V67.875H58.6514C60.3494 67.875 61.7275 69.135 61.7275 70.6875Z" fill="#525CDD"/>
</svg>
