<svg width="93" height="93" viewBox="0 0 93 93" fill="none" xmlns="http://www.w3.org/2000/svg">
<g clip-path="url(#clip0)">
<path d="M13.6535 78.5229H79.3451C86.5842 70.6081 91.0015 60.0692 91.0015 48.4979C91.0015 23.9199 71.0772 3.99561 46.4992 3.99561C21.9212 3.99561 1.99707 23.9199 1.99707 48.4979C1.99707 60.0693 6.41439 70.6081 13.6535 78.5229Z" fill="#4FABF7"/>
<path d="M46.5002 93C59.5067 93 71.2091 87.4193 79.3461 78.5227V23.0504C77.8677 16.6134 70.8544 16.2192 70.7645 16.2154H64.5166C63.7511 16.2154 63.1305 15.5948 63.1305 14.8293V8.13532C63.1059 6.8998 62.6731 1.32761 56.9859 0.00835547C56.9658 0.00599414 56.9327 0.00236133 56.9126 0H16.2314C14.8081 0 13.6543 1.15378 13.6543 2.57712V78.5229C21.7913 87.4193 33.4936 93 46.5002 93Z" fill="#D3DCFB"/>
<path d="M34.2852 27.397C34.293 27.4001 34.2995 27.4028 34.3073 27.4059C34.2935 27.4002 34.2852 27.397 34.2852 27.397Z" fill="#BEC8F7"/>
<path d="M27.0573 52.6936C27.049 52.6852 27.037 52.6732 27.0225 52.6587L27.0573 52.6936Z" fill="#BEC8F7"/>
<path d="M27.0073 52.644C26.984 52.6207 26.9546 52.5915 26.917 52.5537C26.9519 52.5886 26.9826 52.6193 27.0073 52.644Z" fill="#BEC8F7"/>
<path d="M26.7357 52.3719C26.7068 52.343 26.6747 52.3109 26.6416 52.2778C26.6734 52.3098 26.7052 52.3414 26.7357 52.3719Z" fill="#BEC8F7"/>
<path d="M26.5019 52.1386C26.467 52.1037 26.4303 52.067 26.3916 52.0283C26.4272 52.0637 26.4644 52.101 26.5019 52.1386Z" fill="#BEC8F7"/>
<path d="M26.502 52.1387C26.5523 52.189 26.5988 52.2355 26.6415 52.2784C26.5953 52.2319 26.5485 52.185 26.502 52.1387Z" fill="#BEC8F7"/>
<path d="M27.0566 52.6938C27.0754 52.7126 27.077 52.7142 27.0566 52.6938V52.6938Z" fill="#BEC8F7"/>
<path d="M35.8807 0H16.2314C14.8081 0 13.6543 1.15378 13.6543 2.57712V78.5229C19.6023 85.026 27.4564 89.7539 36.3314 91.829C34.8963 90.2075 34.527 87.844 34.527 87.844C34.527 87.844 34.527 79.2464 34.527 75.5529C34.527 71.8596 36.438 70.7094 36.438 70.7094L26.0761 51.7127C23.8338 49.4704 26.0761 46.9334 26.0761 46.9334C26.0761 35.3276 34.2852 27.3969 34.2852 27.3969C32.1059 26.5281 31.9842 23.0586 31.9842 23.0586C31.9842 23.0586 31.9842 9.25386 31.9842 5.13662C31.984 2.64124 34.1633 0.947801 35.8807 0V0Z" fill="#BEC8F7"/>
<path d="M75.1413 12.284L67.0614 4.20407C64.3697 1.51216 60.7187 0 56.9121 0H54.3555C62.3101 0 62.8312 6.81734 62.8573 8.14077V14.8295C62.8573 15.7455 63.5999 16.4881 64.5159 16.4881H70.7638C70.7638 16.4881 79.3454 16.8695 79.3454 25.5883V22.4335C79.3454 18.6265 77.8331 14.9757 75.1413 12.284Z" fill="#F7F7F7"/>
<path d="M66.8344 50.2094C65.4855 50.063 64.2776 51.0348 64.1306 52.3811C63.6883 56.4326 61.9322 60.0967 59.0521 62.9768C52.1387 69.8904 40.8892 69.8904 33.9756 62.9768C33.019 62.0201 32.1804 60.9615 31.4717 59.8244C31.2197 59.42 31.6299 58.9296 32.0703 59.1109L35.1486 60.3787C36.3694 60.8817 37.8065 60.376 38.3662 59.1801C38.9638 57.9033 38.3689 56.4012 37.0805 55.8704L27.3698 51.8707C26.1189 51.3554 24.6843 51.9515 24.1686 53.2041L20.1689 62.9148C19.653 64.167 20.2501 65.6004 21.5023 66.1161C22.7651 66.6361 24.192 66.0243 24.7035 64.7826L25.9738 61.6989C26.1276 61.3253 26.6467 61.2877 26.8465 61.639C27.8419 63.3887 29.0704 65.0071 30.5079 66.4445C39.3323 75.2691 53.693 75.2713 62.52 66.4445C66.1459 62.8185 68.4495 58.0131 69.0059 52.913C69.153 51.5668 68.1805 50.3564 66.8344 50.2094Z" fill="#9181F2"/>
<path d="M71.0274 30.9694C69.7843 30.5245 68.4134 31.1888 67.9107 32.4094L66.667 35.429C66.5131 35.8026 65.994 35.8402 65.7942 35.4889C64.7988 33.7394 63.5702 32.1208 62.1329 30.6833C53.3073 21.8575 38.9466 21.8575 30.1207 30.6833C26.4948 34.3092 24.1914 39.1148 23.6348 44.2148C23.4772 45.6586 24.6053 46.933 26.0755 46.933C27.3105 46.933 28.3731 46.0027 28.5101 44.7466C28.9522 40.6951 30.7085 37.0311 33.5886 34.151C40.502 27.2375 51.7514 27.2374 58.6651 34.151C59.6217 35.1077 60.4603 36.1665 61.1691 37.3033C61.421 37.7077 61.0109 38.1981 60.5704 38.0168L57.4282 36.7225C56.1396 36.1919 54.6592 36.8392 54.1844 38.1665C53.7396 39.4098 54.4039 40.7807 55.6249 41.2836L65.2711 45.257C66.5338 45.7771 67.9608 45.1653 68.4723 43.9236L72.4722 34.2129C73.0026 32.9247 72.3549 31.4443 71.0274 30.9694Z" fill="#AFA7F9"/>
<path d="M88.6184 34.0967C86.5974 36.6238 85.3828 39.8202 85.3828 43.2882V55.1321C85.3828 58.3967 86.4581 61.4214 88.2698 63.8732C90.0352 59.0812 91.0017 53.9026 91.0017 48.4975C91.0015 43.4575 90.1623 38.6137 88.6184 34.0967Z" fill="#73C3F9"/>
<path d="M4.72895 63.8732C6.54063 61.4214 7.61594 58.3967 7.61594 55.1321V43.2882C7.61594 39.8202 6.40131 36.6238 4.38038 34.0967C2.83625 38.6137 1.99707 43.4575 1.99707 48.4975C1.99725 53.9026 2.96358 59.0812 4.72895 63.8732Z" fill="#73C3F9"/>
<path d="M72.6608 9.80351L67.0614 4.20407C64.3697 1.51216 60.7187 0 56.9121 0H54.3555C62.3101 0 62.8312 6.81734 62.8573 8.14077V14.8295C62.8573 15.7455 63.5999 16.4881 64.5159 16.4881H68.2126C67.2209 10.513 72.6608 9.80351 72.6608 9.80351Z" fill="#E9EFFF"/>
<path d="M23.6348 44.2153C23.4772 45.6592 24.6053 46.9336 26.0755 46.9336C27.3105 46.9336 28.3731 46.0032 28.5101 44.7472C28.9524 40.6957 30.7085 37.0316 33.5886 34.1515C34.5998 33.1403 35.7058 32.2813 36.8755 31.5659C36.8732 31.5655 36.871 31.5648 36.8688 31.5644C32.7932 30.9577 34.3068 27.4059 34.3068 27.4059L34.2755 27.4028C32.797 28.3114 31.4003 29.4041 30.1207 30.6838C26.4948 34.3097 24.1914 39.1154 23.6348 44.2153Z" fill="#9181F2"/>
<path d="M33.9759 62.9769C33.0194 62.0202 32.1808 60.9616 31.472 59.8245C31.2201 59.4202 31.6302 58.9298 32.0705 59.111L35.1488 60.3789C36.3696 60.8819 37.8067 60.3762 38.3664 59.1802C38.964 57.9035 38.3691 56.4013 37.0807 55.8706L27.37 51.8709C26.1191 51.3555 24.6845 51.9517 24.1688 53.2043L20.1689 62.915C19.653 64.1672 20.2501 65.6005 21.5023 66.1162C22.7651 66.6362 24.192 66.0245 24.7035 64.7828L25.9738 61.6991C26.1276 61.3254 26.6467 61.2878 26.8467 61.6391C27.8419 63.3889 29.0705 65.0073 30.508 66.4446C32.2892 68.2258 34.2962 69.6471 36.4375 70.7093C35.8357 67.1979 39.1098 66.551 39.1098 66.551L39.1105 66.5496C37.2493 65.6972 35.5061 64.507 33.9759 62.9769Z" fill="#816AE2"/>
<path d="M66.8345 50.2094C65.4857 50.063 64.2777 51.0348 64.1308 52.3811C63.6885 56.4326 61.9324 60.0967 59.0523 62.9768C59.0523 62.9768 58.3786 66.9632 62.5202 66.4446C66.1461 62.8187 68.4497 58.0132 69.006 52.9131C69.1532 51.5668 68.1807 50.3564 66.8345 50.2094Z" fill="#AFA7F9"/>
</g>
<defs>
<clipPath id="clip0">
<rect width="93" height="93" fill="white"/>
</clipPath>
</defs>
</svg>
