<svg width="111" height="111" viewBox="0 0 111 111" fill="none" xmlns="http://www.w3.org/2000/svg">
<path d="M73.0622 106.9V13.2328C73.0622 10.9682 71.2264 9.13257 68.9617 9.13257H11.697C9.4323 9.13257 7.59668 10.9684 7.59668 13.2328V106.9C7.59668 109.164 9.43252 111 11.697 111H68.9619C71.2264 111 73.0622 109.164 73.0622 106.9Z" fill="#FFC250"/>
<path d="M82.4056 9.13235H68.6826C70.9473 9.13235 72.7831 10.9682 72.7831 13.2326V106.9C72.7831 109.164 70.9473 111 68.6826 111H82.4056C84.6703 111 86.5061 109.164 86.5061 106.9V13.2329C86.5061 10.9682 84.6703 9.13235 82.4056 9.13235Z" fill="#EAB14D"/>
<path d="M14.2979 102.832V17.3C14.2979 16.4904 14.9541 15.8344 15.7634 15.8344H78.3379C79.1474 15.8344 79.8035 16.4907 79.8035 17.3V102.832C79.8035 103.642 79.1472 104.298 78.3379 104.298H15.7634C14.9539 104.298 14.2979 103.642 14.2979 102.832Z" fill="#F5F5F5"/>
<path d="M78.3392 15.8344H64.6162C65.4257 15.8344 66.0818 16.4907 66.0818 17.3V102.832C66.0818 103.642 65.4255 104.298 64.6162 104.298H78.3392C79.1488 104.298 79.8048 103.642 79.8048 102.832V17.3C79.8048 16.4907 79.1488 15.8344 78.3392 15.8344Z" fill="#EAEAEA"/>
<path d="M55.7621 5.10296V2.94432C55.7621 1.31834 54.4439 0 52.8178 0H41.2848C39.6586 0 38.3405 1.31834 38.3405 2.94432V5.10296C38.3405 5.76788 37.8013 6.30705 37.1364 6.30705H32.3365C30.7398 6.30705 29.4453 7.60155 29.4453 9.19826V15.8344H64.6572V9.19826C64.6572 7.60155 63.3628 6.30705 61.766 6.30705H56.9662C56.3012 6.30705 55.7621 5.76788 55.7621 5.10296Z" fill="#C2D0DA"/>
<path d="M22.8232 39.6287V26.7211C22.8232 25.2911 23.9827 24.1317 25.4127 24.1317H38.3203C39.7503 24.1317 40.9097 25.2911 40.9097 26.7211V39.6287C40.9097 41.0587 39.7503 42.2181 38.3203 42.2181H25.4127C23.9825 42.2181 22.8232 41.0587 22.8232 39.6287Z" fill="#66B49D"/>
<path d="M22.8232 66.5202V53.6126C22.8232 52.1826 23.9827 51.0231 25.4127 51.0231H38.3203C39.7503 51.0231 40.9097 52.1826 40.9097 53.6126V66.5202C40.9097 67.9502 39.7503 69.1096 38.3203 69.1096H25.4127C23.9825 69.1096 22.8232 67.9502 22.8232 66.5202Z" fill="#66B49D"/>
<path d="M22.8232 93.4115V80.5038C22.8232 79.0738 23.9827 77.9144 25.4127 77.9144H38.3203C39.7503 77.9144 40.9097 79.0738 40.9097 80.5038V93.4115C40.9097 94.8415 39.7503 96.0009 38.3203 96.0009H25.4127C23.9825 96.0009 22.8232 94.8417 22.8232 93.4115Z" fill="#66B49D"/>
<path d="M30.7733 37.7972C30.7714 37.7972 30.7696 37.7972 30.7677 37.7972C30.0282 37.7955 29.3269 37.4373 28.8913 36.8396L26.9354 34.1535C26.3908 33.4056 26.5555 32.3578 27.3035 31.8132C28.0514 31.2688 29.0992 31.4336 29.6436 32.1813L30.7777 33.739L34.0936 29.234C34.6421 28.4888 35.6905 28.3297 36.4354 28.878C37.1805 29.4263 37.3399 30.4749 36.7914 31.22L32.648 36.8492C32.2111 37.443 31.5104 37.7972 30.7733 37.7972Z" fill="#F6F9F9"/>
<path d="M30.7731 65.2738C30.7709 65.2738 30.769 65.2738 30.767 65.2738C30.0275 65.2719 29.3262 64.914 28.8909 64.3158L26.9354 61.6301C26.3908 60.8822 26.5555 59.8344 27.3035 59.2898C28.0514 58.7454 29.0992 58.9102 29.6436 59.6579L30.7777 61.2156L34.0936 56.7106C34.6421 55.9657 35.6905 55.8063 36.4354 56.3546C37.1805 56.9029 37.3399 57.9515 36.7914 58.6967L32.648 64.3258C32.2111 64.92 31.5104 65.2738 30.7731 65.2738Z" fill="#F6F9F9"/>
<path d="M30.774 91.5804C30.772 91.5804 30.7701 91.5804 30.7684 91.5802C30.0291 91.5785 29.3275 91.2205 28.8922 90.623L26.9363 87.9365C26.3917 87.1885 26.5567 86.141 27.3046 85.5964C28.053 85.0518 29.1003 85.217 29.6447 85.9647L30.7786 87.5222L34.0947 83.0172C34.6432 82.2722 35.6916 82.1129 36.4365 82.6612C37.1816 83.2095 37.341 84.2581 36.7925 85.0032L32.6491 90.6324C32.2118 91.2262 31.5113 91.5804 30.774 91.5804Z" fill="#F6F9F9"/>
<path d="M69.9585 31.3499H49.2511C48.3261 31.3499 47.5762 30.6 47.5762 29.6749C47.5762 28.7499 48.3261 28 49.2511 28H69.9585C70.8836 28 71.6335 28.7499 71.6335 29.6749C71.6335 30.6 70.8836 31.3499 69.9585 31.3499Z" fill="#DDEAFB"/>
<path d="M59.6047 38.3496H49.2511C48.3261 38.3496 47.5762 37.5997 47.5762 36.6747C47.5762 35.7496 48.3261 34.9997 49.2511 34.9997H59.6047C60.5298 34.9997 61.2797 35.7496 61.2797 36.6747C61.2797 37.5997 60.5298 38.3496 59.6047 38.3496Z" fill="#DDEAFB"/>
<path d="M63.1448 58.2414H49.2511C48.3261 58.2414 47.5762 57.4915 47.5762 56.5664C47.5762 55.6414 48.3261 54.8914 49.2511 54.8914H63.1448C64.0699 54.8914 64.8198 55.6414 64.8198 56.5664C64.8198 57.4915 64.0699 58.2414 63.1448 58.2414Z" fill="#DDEAFB"/>
<path d="M59.6047 65.2411H49.2511C48.3261 65.2411 47.5762 64.4912 47.5762 63.5661C47.5762 62.6411 48.3261 61.8912 49.2511 61.8912H59.6047C60.5298 61.8912 61.2797 62.6411 61.2797 63.5661C61.2797 64.4912 60.5298 65.2411 59.6047 65.2411Z" fill="#DDEAFB"/>
<path d="M96.8888 43.7318L95.2442 41.5652L89.0904 37.6682L86.7249 37.2956L55.2146 87.088C54.4543 88.2886 53.8965 89.6061 53.5635 90.9875C57.3973 91.035 60.8771 93.2385 62.5592 96.684C63.6658 95.7924 64.6182 94.7248 65.3785 93.5242L96.8888 43.7318Z" fill="#FC8086"/>
<path d="M101.337 28.3987L98.6782 26.7148C96.6054 25.4021 93.8607 26.0189 92.5487 28.0921L90.1104 31.9452L90.8882 33.5133L98.2875 38.1989L100.274 38.3815L102.714 34.526C104.025 32.4538 103.409 29.7107 101.337 28.3987Z" fill="#8C9BA6"/>
<path d="M86.7285 37.2813L90.1159 31.9311L100.282 38.3675L96.8943 43.7176L86.7285 37.2813Z" fill="#C9E2E7"/>
<path d="M62.5592 96.6842L53.5871 103.914C52.3214 104.934 50.4825 103.77 50.8634 102.19L53.5634 90.9877C57.3973 91.0349 60.8773 93.2387 62.5592 96.6842Z" fill="#7C8B96"/>
<path d="M60.2063 93.5802L93.2372 41.4193L90.4069 39.627L57.376 91.7879C58.4123 92.2245 59.3683 92.83 60.2063 93.5802Z" fill="#FB636F"/>
</svg>
