<svg width="99" height="99" viewBox="0 0 478 512" fill="none" xmlns="http://www.w3.org/2000/svg">
<path d="M229.232 426.666H34.1926C15.3416 426.666 0.0605469 411.384 0.0605469 392.534V358.4H262.018L229.232 426.666Z" fill="#D3DCFB"/>
<path d="M443.827 153.6V296.998V392.532H34.1926C15.3416 392.532 0.0605469 377.25 0.0605469 358.399V153.6L239.011 68.266L443.827 153.6Z" fill="#EBF5FC"/>
<path d="M60.3361 221.867H42.2031C37.7851 221.867 34.2031 218.285 34.2031 213.867V195.734C34.2031 191.316 37.7851 187.734 42.2031 187.734H60.3361C64.7541 187.734 68.3361 191.316 68.3361 195.734V213.867C68.3361 218.285 64.7541 221.867 60.3361 221.867Z" fill="#3C58A0"/>
<path d="M128.604 221.867H110.471C106.053 221.867 102.471 218.285 102.471 213.867V195.734C102.471 191.316 106.053 187.734 110.471 187.734H128.604C133.022 187.734 136.604 191.316 136.604 195.734V213.867C136.604 218.285 133.022 221.867 128.604 221.867Z" fill="#3C58A0"/>
<path d="M196.869 221.867H178.736C174.318 221.867 170.736 218.285 170.736 213.867V195.734C170.736 191.316 174.318 187.734 178.736 187.734H196.869C201.287 187.734 204.869 191.316 204.869 195.734V213.867C204.869 218.285 201.288 221.867 196.869 221.867Z" fill="#3C58A0"/>
<path d="M265.137 221.867H247.004C242.586 221.867 239.004 218.285 239.004 213.867V195.734C239.004 191.316 242.586 187.734 247.004 187.734H265.137C269.555 187.734 273.137 191.316 273.137 195.734V213.867C273.137 218.285 269.555 221.867 265.137 221.867Z" fill="#3C58A0"/>
<path d="M333.391 221.867H315.258C310.84 221.867 307.258 218.285 307.258 213.867V195.734C307.258 191.316 310.84 187.734 315.258 187.734H333.391C337.809 187.734 341.391 191.316 341.391 195.734V213.867C341.391 218.285 337.81 221.867 333.391 221.867Z" fill="#3C58A0"/>
<path d="M401.658 221.867H383.525C379.107 221.867 375.525 218.285 375.525 213.867V195.734C375.525 191.316 379.107 187.734 383.525 187.734H401.658C406.076 187.734 409.658 191.316 409.658 195.734V213.867C409.658 218.285 406.076 221.867 401.658 221.867Z" fill="#3C58A0"/>
<path d="M60.3361 290.133H42.2031C37.7851 290.133 34.2031 286.551 34.2031 282.133V264C34.2031 259.582 37.7851 256 42.2031 256H60.3361C64.7541 256 68.3361 259.582 68.3361 264V282.133C68.3361 286.552 64.7541 290.133 60.3361 290.133Z" fill="#3C58A0"/>
<path d="M128.604 290.133H110.471C106.053 290.133 102.471 286.551 102.471 282.133V264C102.471 259.582 106.053 256 110.471 256H128.604C133.022 256 136.604 259.582 136.604 264V282.133C136.604 286.552 133.022 290.133 128.604 290.133Z" fill="#3C58A0"/>
<path d="M196.869 290.133H178.736C174.318 290.133 170.736 286.551 170.736 282.133V264C170.736 259.582 174.318 256 178.736 256H196.869C201.287 256 204.869 259.582 204.869 264V282.133C204.869 286.552 201.288 290.133 196.869 290.133Z" fill="#3C58A0"/>
<path d="M273.137 290.133V264.533C273.137 259.82 269.317 256 264.604 256H247.537C242.824 256 239.004 259.82 239.004 264.533V281.6C239.004 286.313 242.825 290.133 247.537 290.133H273.137Z" fill="#3C58A0"/>
<path d="M60.3361 358.4H42.2031C37.7851 358.4 34.2031 354.818 34.2031 350.4V332.267C34.2031 327.849 37.7851 324.267 42.2031 324.267H60.3361C64.7541 324.267 68.3361 327.849 68.3361 332.267V350.4C68.3361 354.818 64.7541 358.4 60.3361 358.4Z" fill="#3C58A0"/>
<path d="M128.604 358.4H110.471C106.053 358.4 102.471 354.818 102.471 350.4V332.267C102.471 327.849 106.053 324.267 110.471 324.267H128.604C133.022 324.267 136.604 327.849 136.604 332.267V350.4C136.604 354.818 133.022 358.4 128.604 358.4Z" fill="#3C58A0"/>
<path d="M196.869 358.4H178.736C174.318 358.4 170.736 354.818 170.736 350.4V332.267C170.736 327.849 174.318 324.267 178.736 324.267H196.869C201.287 324.267 204.869 327.849 204.869 332.267V350.4C204.869 354.818 201.288 358.4 196.869 358.4Z" fill="#3C58A0"/>
<path d="M401.418 187.733H383.768C382.7 187.733 381.683 187.943 380.746 188.312C383.801 189.518 385.965 192.49 385.965 195.974V213.624C385.965 217.108 383.8 220.08 380.746 221.286C381.683 221.656 382.7 221.866 383.768 221.866H401.418C405.97 221.866 409.66 218.176 409.66 213.625V195.975C409.659 191.423 405.969 187.733 401.418 187.733V187.733Z" fill="#2A428C"/>
<path d="M333.151 187.733H315.501C314.433 187.733 313.416 187.943 312.479 188.312C315.534 189.518 317.698 192.49 317.698 195.974V213.624C317.698 217.108 315.533 220.08 312.479 221.286C313.416 221.656 314.433 221.866 315.501 221.866H333.151C337.703 221.866 341.392 218.176 341.392 213.625V195.975C341.392 191.423 337.703 187.733 333.151 187.733V187.733Z" fill="#2A428C"/>
<path d="M264.895 187.733H247.245C246.177 187.733 245.16 187.943 244.223 188.312C247.278 189.518 249.443 192.49 249.443 195.974V213.624C249.443 217.108 247.278 220.08 244.223 221.286C245.16 221.656 246.177 221.866 247.245 221.866H264.895C269.447 221.866 273.137 218.176 273.137 213.625V195.975C273.136 191.423 269.446 187.733 264.895 187.733V187.733Z" fill="#2A428C"/>
<path d="M196.629 187.733H178.979C177.911 187.733 176.894 187.943 175.957 188.312C179.012 189.518 181.177 192.49 181.177 195.974V213.624C181.177 217.108 179.012 220.08 175.957 221.286C176.894 221.656 177.911 221.866 178.979 221.866H196.629C201.181 221.866 204.871 218.176 204.871 213.625V195.975C204.87 191.423 201.181 187.733 196.629 187.733V187.733Z" fill="#2A428C"/>
<path d="M128.361 187.733H110.711C109.643 187.733 108.626 187.943 107.689 188.312C110.744 189.518 112.908 192.49 112.908 195.974V213.624C112.908 217.108 110.743 220.08 107.689 221.286C108.626 221.656 109.643 221.866 110.711 221.866H128.361C132.913 221.866 136.603 218.176 136.603 213.625V195.975C136.603 191.423 132.913 187.733 128.361 187.733V187.733Z" fill="#2A428C"/>
<path d="M60.0958 187.733H42.4458C41.3778 187.733 40.3608 187.943 39.4238 188.312C42.4788 189.518 44.6438 192.49 44.6438 195.974V213.624C44.6438 217.108 42.4788 220.08 39.4238 221.286C40.3608 221.656 41.3778 221.866 42.4458 221.866H60.0958C64.6478 221.866 68.3378 218.176 68.3378 213.625V195.975C68.3368 191.423 64.6468 187.733 60.0958 187.733V187.733Z" fill="#2A428C"/>
<path d="M60.0958 256H42.4458C41.3778 256 40.3608 256.21 39.4238 256.579C42.4788 257.785 44.6438 260.757 44.6438 264.241V281.892C44.6438 285.376 42.4788 288.348 39.4238 289.554C40.3608 289.924 41.3778 290.134 42.4458 290.134H60.0958C64.6478 290.134 68.3378 286.444 68.3378 281.893V264.242C68.3368 259.69 64.6468 256 60.0958 256V256Z" fill="#2A428C"/>
<path d="M60.0958 324.267H42.4458C41.3778 324.267 40.3608 324.477 39.4238 324.846C42.4788 326.052 44.6438 329.024 44.6438 332.508V350.159C44.6438 353.643 42.4788 356.615 39.4238 357.821C40.3608 358.191 41.3778 358.401 42.4458 358.401H60.0958C64.6478 358.401 68.3378 354.711 68.3378 350.16V332.509C68.3368 327.956 64.6468 324.267 60.0958 324.267V324.267Z" fill="#2A428C"/>
<path d="M128.361 256H110.711C109.643 256 108.626 256.21 107.689 256.579C110.744 257.785 112.908 260.757 112.908 264.241V281.892C112.908 285.376 110.743 288.348 107.689 289.554C108.626 289.924 109.643 290.134 110.711 290.134H128.361C132.913 290.134 136.603 286.444 136.603 281.893V264.242C136.603 259.69 132.913 256 128.361 256V256Z" fill="#2A428C"/>
<path d="M128.361 324.267H110.711C109.643 324.267 108.626 324.477 107.689 324.846C110.744 326.052 112.908 329.024 112.908 332.508V350.159C112.908 353.643 110.743 356.615 107.689 357.821C108.626 358.191 109.643 358.401 110.711 358.401H128.361C132.913 358.401 136.603 354.711 136.603 350.16V332.509C136.603 327.956 132.913 324.267 128.361 324.267V324.267Z" fill="#2A428C"/>
<path d="M196.629 256H178.979C177.911 256 176.894 256.21 175.957 256.579C179.012 257.785 181.177 260.757 181.177 264.241V281.892C181.177 285.376 179.012 288.348 175.957 289.554C176.894 289.924 177.911 290.134 178.979 290.134H196.629C201.181 290.134 204.871 286.444 204.871 281.893V264.242C204.87 259.69 201.181 256 196.629 256V256Z" fill="#2A428C"/>
<path d="M273.137 290.133V264.241C273.137 259.689 269.447 256 264.895 256H247.245C246.177 256 245.16 256.21 244.223 256.579C247.278 257.785 249.443 260.757 249.443 264.241V281.892C249.443 285.376 247.278 288.348 244.223 289.554C245.16 289.924 246.177 290.134 247.245 290.134H273.137V290.133Z" fill="#2A428C"/>
<path d="M196.629 324.267H178.979C177.911 324.267 176.894 324.477 175.957 324.846C179.012 326.052 181.177 329.024 181.177 332.508V350.159C181.177 353.643 179.012 356.615 175.957 357.821C176.894 358.191 177.911 358.401 178.979 358.401H196.629C201.181 358.401 204.871 354.711 204.871 350.16V332.509C204.87 327.956 201.181 324.267 196.629 324.267V324.267Z" fill="#2A428C"/>
<path d="M420.115 143.721V296.998V392.533H443.826V296.998V153.6L420.115 143.721Z" fill="#D3DCFB"/>
<path d="M443.827 153.6V68.266C443.827 49.415 428.545 34.134 409.695 34.134H34.1926C15.3416 34.134 0.0605469 49.415 0.0605469 68.266V153.6H443.827Z" fill="#FF4155"/>
<path d="M107.609 75.993H85.392C81.124 75.993 77.666 72.534 77.666 68.267C77.666 64 81.125 60.541 85.392 60.541H107.609C111.877 60.541 115.335 64 115.335 68.267C115.335 72.534 111.876 75.993 107.609 75.993V75.993Z" fill="#E80054"/>
<path d="M162.191 75.993H139.974C135.706 75.993 132.248 72.534 132.248 68.267C132.248 64 135.707 60.541 139.974 60.541H162.191C166.459 60.541 169.917 64 169.917 68.267C169.917 72.534 166.459 75.993 162.191 75.993V75.993Z" fill="#E80054"/>
<path d="M303.887 75.993H281.669C277.401 75.993 273.943 72.534 273.943 68.267C273.943 64 277.402 60.541 281.669 60.541H303.887C308.155 60.541 311.613 64 311.613 68.267C311.613 72.534 308.155 75.993 303.887 75.993Z" fill="#E80054"/>
<path d="M358.469 75.993H336.251C331.983 75.993 328.525 72.534 328.525 68.267C328.525 64 331.984 60.541 336.251 60.541H358.469C362.737 60.541 366.195 64 366.195 68.267C366.195 72.534 362.736 75.993 358.469 75.993Z" fill="#E80054"/>
<path d="M145.125 64C145.125 75.782 135.574 85.333 123.792 85.333C112.01 85.333 102.459 75.782 102.459 64V21.333C102.458 9.551 112.009 0 123.791 0C135.573 0 145.124 9.551 145.124 21.333V64H145.125Z" fill="#EBF5FC"/>
<path d="M341.403 64C341.403 75.782 331.852 85.333 320.07 85.333C308.288 85.333 298.736 75.782 298.736 64V21.333C298.736 9.551 308.287 0 320.069 0C331.851 0 341.402 9.551 341.402 21.333V64H341.403Z" fill="#EBF5FC"/>
<path d="M320.07 0C315.69 0 311.622 1.324 308.234 3.588C313.959 7.414 317.732 13.931 317.732 21.334V64C317.732 71.402 313.959 77.92 308.234 81.746C311.621 84.009 315.69 85.334 320.07 85.334C331.852 85.334 341.403 75.783 341.403 64.001V21.333C341.404 9.551 331.853 0 320.07 0V0Z" fill="#D3DCFB"/>
<path d="M123.791 0C119.411 0 115.343 1.324 111.955 3.588C117.68 7.414 121.453 13.931 121.453 21.334V64C121.453 71.402 117.68 77.92 111.955 81.746C115.342 84.009 119.411 85.334 123.791 85.334C135.573 85.334 145.124 75.783 145.124 64.001V21.333C145.125 9.551 135.574 0 123.791 0V0Z" fill="#D3DCFB"/>
<path d="M409.693 34.1331H385.99C404.841 34.1331 420.122 49.4141 420.122 68.2651V153.6H443.824V68.2661C443.825 49.4151 428.543 34.1331 409.693 34.1331V34.1331Z" fill="#E80054"/>
<path d="M0.0585938 111.74H443.826V127.193H0.0585938V111.74Z" fill="#E80054"/>
<path d="M349.943 512C420.636 512 477.943 454.692 477.943 384C477.943 313.308 420.636 256 349.943 256C279.251 256 221.943 313.308 221.943 384C221.943 454.692 279.251 512 349.943 512Z" fill="#4FABF7"/>
<path d="M349.943 477.867C401.784 477.867 443.81 435.841 443.81 384C443.81 332.159 401.784 290.133 349.943 290.133C298.102 290.133 256.076 332.159 256.076 384C256.076 435.841 298.102 477.867 349.943 477.867Z" fill="#EBF5FC"/>
<path d="M349.943 374.659C345.675 374.659 342.217 371.2 342.217 366.933V324.266C342.217 319.999 345.676 316.54 349.943 316.54C354.211 316.54 357.669 319.999 357.669 324.266V366.933C357.669 371.2 354.21 374.659 349.943 374.659Z" fill="#3C58A0"/>
<path d="M392.61 391.726H367.009C362.741 391.726 359.283 388.267 359.283 384C359.283 379.733 362.742 376.274 367.009 376.274H392.61C396.878 376.274 400.336 379.733 400.336 384C400.336 388.267 396.877 391.726 392.61 391.726Z" fill="#3C58A0"/>
<path d="M349.942 256C345.947 256 341.997 256.193 338.095 256.551C403.232 262.53 454.247 317.303 454.247 384C454.247 450.697 403.231 505.47 338.094 511.449C341.996 511.807 345.946 512 349.941 512C420.633 512 477.941 454.692 477.941 384C477.941 313.308 420.634 256 349.942 256Z" fill="#1886EA"/>
<path d="M349.943 290.133C345.933 290.133 341.982 290.386 338.104 290.874C384.356 296.695 420.132 336.169 420.132 384C420.132 431.831 384.356 471.305 338.104 477.126C341.982 477.614 345.933 477.867 349.943 477.867C401.784 477.867 443.81 435.841 443.81 384C443.81 332.159 401.784 290.133 349.943 290.133V290.133Z" fill="#D3DCFB"/>
<path d="M349.942 401.067C359.368 401.067 367.009 393.426 367.009 384C367.009 374.574 359.368 366.933 349.942 366.933C340.516 366.933 332.875 374.574 332.875 384C332.875 393.426 340.516 401.067 349.942 401.067Z" fill="#FFDD40"/>
</svg>
