<svg width="84" height="91" viewBox="0 0 84 91" fill="none" xmlns="http://www.w3.org/2000/svg">
<path fill-rule="evenodd" clip-rule="evenodd" d="M5.92209 85.2112H72.1715C74.5765 85.2112 76.5456 83.0832 76.5456 80.4776V28.5429L39.0466 26.1523L1.54785 28.5429V80.4776C1.54785 83.0832 3.51693 85.2112 5.92209 85.2112Z" fill="#EFF6FF"/>
<path fill-rule="evenodd" clip-rule="evenodd" d="M1.54744 28.5427H76.5452C77.3835 28.5427 78.0734 27.8108 78.0926 26.9077V26.8661V22.3453L39.0462 18.8418L0 22.3455V26.8663V26.8974C0.0144375 27.8057 0.70432 28.5427 1.54744 28.5427Z" fill="#9FD4FE"/>
<path fill-rule="evenodd" clip-rule="evenodd" d="M0 22.3455H78.0928V10.8177V10.7761C78.0736 9.87302 77.3837 9.14111 76.5453 9.14111H1.54744C0.704156 9.14111 0.0142734 9.87818 0 10.7864V10.8175L0 22.3455Z" fill="#EB5468"/>
<path fill-rule="evenodd" clip-rule="evenodd" d="M55.9824 9.14129C58.0473 13.1016 59.844 17.5392 61.3195 22.3455H78.0926V10.8177V10.7761C78.0734 9.87302 77.3836 9.14111 76.5452 9.14111H70.0631V12.6603C70.0631 14.778 68.463 16.5062 66.5129 16.5062C64.5583 16.5062 62.9628 14.7778 62.9628 12.6603V9.14111H55.9824V9.14129Z" fill="#E5384F"/>
<path fill-rule="evenodd" clip-rule="evenodd" d="M61.3193 22.3459C61.9326 24.3493 62.4932 26.4203 62.9913 28.5431H76.545C77.3834 28.5431 78.0732 27.8112 78.0924 26.9081V26.8666V22.3457H61.3193V22.3459Z" fill="#85BEEF"/>
<path fill-rule="evenodd" clip-rule="evenodd" d="M8.0293 12.6604C8.0293 14.7781 9.62464 16.5064 11.5794 16.5064C13.5293 16.5064 15.1296 14.778 15.1296 12.6604V9.14129V4.45976C15.1296 2.34206 13.5295 0.61377 11.5794 0.61377C9.6248 0.61377 8.0293 2.34224 8.0293 4.45976V9.14146V12.6604Z" fill="#FFE07D"/>
<path fill-rule="evenodd" clip-rule="evenodd" d="M26.3408 12.6604C26.3408 14.7781 27.9362 16.5064 29.891 16.5064C31.8409 16.5064 33.4411 14.778 33.4411 12.6604V9.14129V4.45976C33.4411 2.34206 31.841 0.61377 29.891 0.61377C27.9363 0.61377 26.3408 2.34224 26.3408 4.45976V9.14146V12.6604Z" fill="#FFE07D"/>
<path fill-rule="evenodd" clip-rule="evenodd" d="M44.6514 12.6604C44.6514 14.7781 46.2467 16.5064 48.2015 16.5064C50.1514 16.5064 51.7517 14.778 51.7517 12.6604V9.14129V4.45976C51.7517 2.34206 50.1516 0.61377 48.2015 0.61377C46.2469 0.61377 44.6514 2.34224 44.6514 4.45976V9.14146V12.6604Z" fill="#FFE07D"/>
<path fill-rule="evenodd" clip-rule="evenodd" d="M62.9629 4.45976V9.14147V12.6606C62.9629 14.7783 64.5582 16.5066 66.513 16.5066C68.4629 16.5066 70.0632 14.7781 70.0632 12.6606V9.14147V4.45976C70.0632 2.34206 68.4631 0.61377 66.513 0.61377C64.5582 0.61377 62.9629 2.34206 62.9629 4.45976Z" fill="#FFE07D"/>
<path fill-rule="evenodd" clip-rule="evenodd" d="M29.9536 4.45976V12.6606C29.9536 14.0931 29.2254 15.344 28.1475 16.0084C28.6649 16.325 29.259 16.5066 29.8914 16.5066C31.8413 16.5066 33.4416 14.7781 33.4416 12.6606V9.14147V4.45976C33.4416 2.34206 31.8415 0.61377 29.8914 0.61377C29.259 0.61377 28.6602 0.795414 28.1475 1.11196C29.2255 1.77118 29.9536 3.02722 29.9536 4.45976Z" fill="#FFC250"/>
<path fill-rule="evenodd" clip-rule="evenodd" d="M11.6421 4.45976V12.6606C11.6421 14.0931 10.9138 15.344 9.83594 16.0084C10.3534 16.325 10.9475 16.5066 11.5799 16.5066C13.5298 16.5066 15.1301 14.7781 15.1301 12.6606V9.14147V4.45976C15.1301 2.34206 13.53 0.61377 11.5799 0.61377C10.9475 0.61377 10.3534 0.795414 9.83594 1.11196C10.9138 1.77118 11.6421 3.02722 11.6421 4.45976Z" fill="#FFC250"/>
<path fill-rule="evenodd" clip-rule="evenodd" d="M48.2642 4.45976V12.6606C48.2642 14.0931 47.5359 15.344 46.458 16.0084C46.9707 16.325 47.5695 16.5066 48.202 16.5066C50.1519 16.5066 51.7521 14.7781 51.7521 12.6606V9.14147V4.45976C51.7521 2.34206 50.152 0.61377 48.202 0.61377C47.5695 0.61377 46.9707 0.795414 46.458 1.11196C47.5359 1.77118 48.2642 3.02722 48.2642 4.45976Z" fill="#FFC250"/>
<path fill-rule="evenodd" clip-rule="evenodd" d="M66.5757 4.45976V12.6606C66.5757 14.0931 65.8474 15.344 64.7695 16.0084C65.2822 16.325 65.8811 16.5066 66.5135 16.5066C68.4634 16.5066 70.0637 14.7781 70.0637 12.6606V9.14147V4.45976C70.0637 2.34206 68.4636 0.61377 66.5135 0.61377C65.8811 0.61377 65.2822 0.795414 64.7695 1.11196C65.8427 1.77118 66.5757 3.02722 66.5757 4.45976Z" fill="#FFC250"/>
<path fill-rule="evenodd" clip-rule="evenodd" d="M62.4546 85.2113H72.1707C74.5757 85.2113 76.5448 83.0833 76.5448 80.4777V28.543H62.9911H59.1104C65.6934 46.6781 66.3785 65.9239 62.4546 85.2113Z" fill="#D9EEFF"/>
<path fill-rule="evenodd" clip-rule="evenodd" d="M62.1343 43.0034C50.0564 43.0034 40.2637 53.6126 40.2637 66.6974C40.2637 79.7822 50.0564 90.3862 62.1343 90.3862C74.2075 90.3862 84.0003 79.7823 84.0003 66.6974C84.0003 53.6124 74.2075 43.0034 62.1343 43.0034Z" fill="#EB5468"/>
<path fill-rule="evenodd" clip-rule="evenodd" d="M62.1335 49.1851C53.2031 49.1851 45.9688 57.0278 45.9688 66.6972C45.9688 76.3667 53.2031 84.2042 62.1335 84.2042C71.059 84.2042 78.2935 76.3669 78.2935 66.6972C78.2935 57.0276 71.059 49.1851 62.1335 49.1851Z" fill="#EFF6FF"/>
<path d="M47.8141 39.1135H16.5146C15.8146 39.1135 15.2471 38.4988 15.2471 37.7404C15.2471 36.982 15.8146 36.3672 16.5146 36.3672H47.814C48.5142 36.3672 49.0815 36.982 49.0815 37.7404C49.0815 38.4988 48.5142 39.1135 47.8141 39.1135Z" fill="#2B4D66"/>
<path d="M38.4142 48.4299H16.5146C15.8146 48.4299 15.2471 47.8152 15.2471 47.0568C15.2471 46.2984 15.8146 45.6836 16.5146 45.6836H38.4142C39.1142 45.6836 39.6817 46.2984 39.6817 47.0568C39.6817 47.8152 39.1142 48.4299 38.4142 48.4299Z" fill="#2B4D66"/>
<path d="M33.4603 57.7468H16.5146C15.8146 57.7468 15.2471 57.132 15.2471 56.3737C15.2471 55.6153 15.8146 55.0005 16.5146 55.0005H33.4603C34.1604 55.0005 34.7278 55.6153 34.7278 56.3737C34.7278 57.132 34.1604 57.7468 33.4603 57.7468Z" fill="#2B4D66"/>
<path d="M33.4603 67.0637H16.5146C15.8146 67.0637 15.2471 66.449 15.2471 65.6906C15.2471 64.9322 15.8146 64.3174 16.5146 64.3174H33.4603C34.1604 64.3174 34.7278 64.9322 34.7278 65.6906C34.7278 66.449 34.1604 67.0637 33.4603 67.0637Z" fill="#2B4D66"/>
<path d="M30.3558 76.3801H16.5146C15.8146 76.3801 15.2471 75.7654 15.2471 75.007C15.2471 74.2486 15.8146 73.6338 16.5146 73.6338H30.3558C31.0558 73.6338 31.6233 74.2486 31.6233 75.007C31.6233 75.7654 31.0558 76.3801 30.3558 76.3801Z" fill="#2B4D66"/>
<path d="M11.2591 39.1135H9.84567C9.14562 39.1135 8.57812 38.4988 8.57812 37.7404C8.57812 36.982 9.14562 36.3672 9.84567 36.3672H11.2591C11.9591 36.3672 12.5266 36.982 12.5266 37.7404C12.5266 38.4988 11.9591 39.1135 11.2591 39.1135Z" fill="#EB5468"/>
<path d="M11.2591 48.4299H9.84567C9.14562 48.4299 8.57812 47.8152 8.57812 47.0568C8.57812 46.2984 9.14562 45.6836 9.84567 45.6836H11.2591C11.9591 45.6836 12.5266 46.2984 12.5266 47.0568C12.5266 47.8152 11.9591 48.4299 11.2591 48.4299Z" fill="#2B4D66"/>
<path d="M11.2591 57.7468H9.84567C9.14562 57.7468 8.57812 57.132 8.57812 56.3737C8.57812 55.6153 9.14562 55.0005 9.84567 55.0005H11.2591C11.9591 55.0005 12.5266 55.6153 12.5266 56.3737C12.5266 57.132 11.9591 57.7468 11.2591 57.7468Z" fill="#EB5468"/>
<path d="M11.2591 67.0637H9.84567C9.14562 67.0637 8.57812 66.449 8.57812 65.6906C8.57812 64.9322 9.14562 64.3174 9.84567 64.3174H11.2591C11.9591 64.3174 12.5266 64.9322 12.5266 65.6906C12.5266 66.449 11.9591 67.0637 11.2591 67.0637Z" fill="#2B4D66"/>
<path d="M11.2591 76.3801H9.84567C9.14562 76.3801 8.57812 75.7654 8.57812 75.007C8.57812 74.2486 9.14562 73.6338 9.84567 73.6338H11.2591C11.9591 73.6338 12.5266 74.2486 12.5266 75.007C12.5266 75.7654 11.9591 76.3801 11.2591 76.3801Z" fill="#EB5468"/>
<path fill-rule="evenodd" clip-rule="evenodd" d="M64.8553 63.7285H56.5142C55.1536 63.7285 54.0469 65.0624 54.0469 66.6974C54.0469 68.3272 55.1584 69.6611 56.5142 69.6611H64.5966H67.7538C69.1096 69.6611 70.2164 68.3272 70.2164 66.6974C70.2164 65.0676 69.1096 63.7285 67.7538 63.7285H64.8553Z" fill="#EB5468"/>
<path fill-rule="evenodd" clip-rule="evenodd" d="M59.0586 49.5016C61.2959 53.4048 62.9009 58.2941 63.6005 63.7283H64.8557H67.7542C69.1101 63.7283 70.2168 65.0674 70.2168 66.6972C70.2168 68.3271 69.1101 69.6609 67.7542 69.6609H64.597H63.9934V69.9204C63.9934 75.0952 63.1885 79.9585 61.7751 84.2042H62.1344C62.3069 84.2042 62.4842 84.2042 62.6566 84.1991C68.722 83.9863 73.9489 80.1558 76.5457 74.6332C77.662 72.2509 78.2944 69.5518 78.2944 66.6972C78.2944 63.8373 77.662 61.1436 76.5457 58.7561C74.155 53.6746 69.5414 50.0259 64.094 49.3148C63.452 49.2266 62.7956 49.1851 62.1344 49.1851C61.0803 49.1851 60.0551 49.294 59.0586 49.5016Z" fill="#D9EEFF"/>
<path fill-rule="evenodd" clip-rule="evenodd" d="M64.8558 63.7285H63.6006C63.8498 65.6438 63.9838 67.6317 63.9935 69.6611H64.5971H67.7543C69.1101 69.6611 70.2169 68.3272 70.2169 66.6974C70.2169 65.0676 69.1101 63.7285 67.7543 63.7285H64.8558Z" fill="#E5384F"/>
<path fill-rule="evenodd" clip-rule="evenodd" d="M76.5455 48.879C72.9187 45.4377 68.238 43.2682 63.0973 43.0294C62.7762 43.0137 62.4553 43.0034 62.1343 43.0034C59.6669 43.0034 57.2954 43.4497 55.082 44.2646C56.5529 45.7023 57.8895 47.467 59.0586 49.5017C60.0551 49.2942 61.0803 49.1852 62.1344 49.1852C62.7956 49.1852 63.452 49.2268 64.094 49.3149C69.5413 50.0261 74.1549 53.6748 76.5457 58.7562C77.6619 61.1437 78.2944 63.8376 78.2944 66.6974C78.2944 69.5521 77.6619 72.251 76.5457 74.6334C73.9489 80.1559 68.722 83.9865 62.6566 84.1992C62.4842 84.2044 62.3068 84.2044 62.1344 84.2044C62.0147 84.2044 61.8949 84.2044 61.7751 84.2044C61.6601 84.5417 61.5404 84.8791 61.4206 85.2112C60.7691 86.9916 60.0121 88.6524 59.1544 90.1681C60.127 90.3135 61.1235 90.3862 62.1344 90.3862C74.2076 90.3862 84.0003 79.7823 84.0003 66.6974C84.0002 59.5919 81.116 53.2182 76.5455 48.879Z" fill="#E5384F"/>
</svg>
