<svg width="96" height="111" viewBox="0 0 512 512" fill="none" xmlns="http://www.w3.org/2000/svg">
<path d="M512 256C512 397.387 397.387 512 256 512C114.613 512 0 397.387 0 256C0 114.613 114.613 0 256 0C397.387 0 512 114.613 512 256Z" fill="#FFCE00"/>
<path d="M512 256C512 252.051 511.898 248.125 511.719 244.219L457.004 189.5L449.598 200.914L338.879 90.1914L83.1289 421.809L150.754 489.434C182.855 503.93 218.484 512 256 512C397.387 512 512 397.387 512 256Z" fill="#FFA300"/>
<path d="M147.062 90.1953L83.1289 154.129V421.809H338.879V90.1953H147.062Z" fill="white"/>
<path d="M209.883 90.1914H338.879V421.805H209.883V90.1914Z" fill="#E9EDF5"/>
<path d="M147.062 154.129V90.1914L83.1289 154.129H147.062Z" fill="#DCE1EB"/>
<path d="M211.004 189.5H457.004V310.5H211.004V189.5Z" fill="#08C175"/>
<path d="M333.691 189.5H457.004V310.5H333.691V189.5Z" fill="#0EAA67"/>
<path d="M364.004 250C364.004 226.527 350.57 207.5 334.004 207.5C317.434 207.5 304.004 226.527 304.004 250C304.004 273.473 317.434 292.5 334.004 292.5C350.57 292.5 364.004 273.473 364.004 250Z" fill="#09D687"/>
<path d="M334.004 207.5C333.898 207.5 333.797 207.512 333.691 207.512V292.488C333.793 292.488 333.898 292.5 334.004 292.5C350.57 292.5 364.004 273.473 364.004 250C364.004 226.527 350.57 207.5 334.004 207.5V207.5Z" fill="#08C175"/>
<path d="M169 256H415V377H169V256Z" fill="#09D687"/>
<path d="M291.43 256H415V377H291.43V256Z" fill="#08C175"/>
<path d="M322 316.5C322 293.027 308.57 274 292 274C275.43 274 262 293.027 262 316.5C262 339.973 275.43 359 292 359C308.57 359 322 339.973 322 316.5Z" fill="#08C175"/>
<path d="M292 274C291.809 274 291.617 274.016 291.43 274.02V358.98C291.621 358.984 291.809 359 292 359C308.57 359 322 339.973 322 316.5C322 293.027 308.57 274 292 274V274Z" fill="#0EAA67"/>
</svg>
