<svg width="113" height="113" viewBox="0 0 113 113" fill="none" xmlns="http://www.w3.org/2000/svg">
<g clip-path="url(#clip0)">
<path d="M54.3434 94.1665H11.2977C7.13721 94.1665 3.76465 90.7937 3.76465 86.6335V79.1H61.5794L54.3434 94.1665Z" fill="#D3DCFB"/>
<path d="M101.705 33.9V65.5484V86.6331H11.2977C7.13721 86.6331 3.76465 83.2603 3.76465 79.0998V33.9L56.5017 15.0665L101.705 33.9Z" fill="#EBF5FC"/>
<path d="M17.0684 48.9667H13.0664C12.0913 48.9667 11.3008 48.1762 11.3008 47.2011V43.1991C11.3008 42.224 12.0913 41.4335 13.0664 41.4335H17.0684C18.0435 41.4335 18.834 42.224 18.834 43.1991V47.2011C18.834 48.1762 18.0435 48.9667 17.0684 48.9667Z" fill="#3C58A0"/>
<path d="M32.1348 48.9667H28.1328C27.1577 48.9667 26.3672 48.1762 26.3672 47.2011V43.1991C26.3672 42.224 27.1577 41.4335 28.1328 41.4335H32.1348C33.1099 41.4335 33.9004 42.224 33.9004 43.1991V47.2011C33.9004 48.1762 33.1099 48.9667 32.1348 48.9667Z" fill="#3C58A0"/>
<path d="M47.2012 48.9667H43.1992C42.2242 48.9667 41.4336 48.1762 41.4336 47.2011V43.1991C41.4336 42.224 42.2242 41.4335 43.1992 41.4335H47.2012C48.1763 41.4335 48.9669 42.224 48.9669 43.1991V47.2011C48.9669 48.1762 48.1765 48.9667 47.2012 48.9667Z" fill="#3C58A0"/>
<path d="M62.2686 48.9667H58.2666C57.2915 48.9667 56.501 48.1762 56.501 47.2011V43.1991C56.501 42.224 57.2915 41.4335 58.2666 41.4335H62.2686C63.2437 41.4335 64.0342 42.224 64.0342 43.1991V47.2011C64.0342 48.1762 63.2437 48.9667 62.2686 48.9667Z" fill="#3C58A0"/>
<path d="M77.3331 48.9667H73.3311C72.356 48.9667 71.5654 48.1762 71.5654 47.2011V43.1991C71.5654 42.224 72.356 41.4335 73.3311 41.4335H77.3331C78.3081 41.4335 79.0987 42.224 79.0987 43.1991V47.2011C79.0987 48.1762 78.3083 48.9667 77.3331 48.9667Z" fill="#3C58A0"/>
<path d="M92.3995 48.9667H88.3975C87.4224 48.9667 86.6318 48.1762 86.6318 47.2011V43.1991C86.6318 42.224 87.4224 41.4335 88.3975 41.4335H92.3995C93.3745 41.4335 94.1651 42.224 94.1651 43.1991V47.2011C94.1651 48.1762 93.3745 48.9667 92.3995 48.9667Z" fill="#3C58A0"/>
<path d="M17.0684 64.0333H13.0664C12.0913 64.0333 11.3008 63.2427 11.3008 62.2676V58.2656C11.3008 57.2906 12.0913 56.5 13.0664 56.5H17.0684C18.0435 56.5 18.834 57.2906 18.834 58.2656V62.2676C18.834 63.2429 18.0435 64.0333 17.0684 64.0333Z" fill="#3C58A0"/>
<path d="M32.1348 64.0333H28.1328C27.1577 64.0333 26.3672 63.2427 26.3672 62.2676V58.2656C26.3672 57.2906 27.1577 56.5 28.1328 56.5H32.1348C33.1099 56.5 33.9004 57.2906 33.9004 58.2656V62.2676C33.9004 63.2429 33.1099 64.0333 32.1348 64.0333Z" fill="#3C58A0"/>
<path d="M47.2012 64.0333H43.1992C42.2242 64.0333 41.4336 63.2427 41.4336 62.2676V58.2656C41.4336 57.2906 42.2242 56.5 43.1992 56.5H47.2012C48.1763 56.5 48.9669 57.2906 48.9669 58.2656V62.2676C48.9669 63.2429 48.1765 64.0333 47.2012 64.0333Z" fill="#3C58A0"/>
<path d="M64.0342 64.0333V58.3833C64.0342 57.3431 63.1912 56.5 62.151 56.5H58.3842C57.3441 56.5 56.501 57.3431 56.501 58.3833V62.15C56.501 63.1902 57.3443 64.0333 58.3842 64.0333H64.0342Z" fill="#3C58A0"/>
<path d="M17.0684 79.1H13.0664C12.0913 79.1 11.3008 78.3094 11.3008 77.3344V73.3324C11.3008 72.3573 12.0913 71.5667 13.0664 71.5667H17.0684C18.0435 71.5667 18.834 72.3573 18.834 73.3324V77.3344C18.834 78.3094 18.0435 79.1 17.0684 79.1Z" fill="#3C58A0"/>
<path d="M32.1348 79.1H28.1328C27.1577 79.1 26.3672 78.3094 26.3672 77.3344V73.3324C26.3672 72.3573 27.1577 71.5667 28.1328 71.5667H32.1348C33.1099 71.5667 33.9004 72.3573 33.9004 73.3324V77.3344C33.9004 78.3094 33.1099 79.1 32.1348 79.1Z" fill="#3C58A0"/>
<path d="M47.2012 79.1H43.1992C42.2242 79.1 41.4336 78.3094 41.4336 77.3344V73.3324C41.4336 72.3573 42.2242 71.5667 43.1992 71.5667H47.2012C48.1763 71.5667 48.9669 72.3573 48.9669 73.3324V77.3344C48.9669 78.3094 48.1765 79.1 47.2012 79.1Z" fill="#3C58A0"/>
<path d="M92.3466 41.4332H88.4511C88.2154 41.4332 87.991 41.4796 87.7842 41.561C88.4584 41.8272 88.936 42.4831 88.936 43.252V47.1474C88.936 47.9164 88.4582 48.5723 87.7842 48.8385C87.991 48.9201 88.2154 48.9665 88.4511 48.9665H92.3466C93.3512 48.9665 94.1656 48.1521 94.1656 47.1477V43.2523C94.1654 42.2476 93.351 41.4332 92.3466 41.4332Z" fill="#2A428C"/>
<path d="M77.2792 41.4332H73.3838C73.1481 41.4332 72.9236 41.4796 72.7168 41.561C73.391 41.8272 73.8686 42.4831 73.8686 43.252V47.1474C73.8686 47.9164 73.3908 48.5723 72.7168 48.8385C72.9236 48.9201 73.1481 48.9665 73.3838 48.9665H77.2792C78.2838 48.9665 79.098 48.1521 79.098 47.1477V43.2523C79.098 42.2476 78.2838 41.4332 77.2792 41.4332Z" fill="#2A428C"/>
<path d="M62.2147 41.4332H58.3193C58.0836 41.4332 57.8591 41.4796 57.6523 41.561C58.3266 41.8272 58.8044 42.4831 58.8044 43.252V47.1474C58.8044 47.9164 58.3266 48.5723 57.6523 48.8385C57.8591 48.9201 58.0836 48.9665 58.3193 48.9665H62.2147C63.2194 48.9665 64.0338 48.1521 64.0338 47.1477V43.2523C64.0335 42.2476 63.2191 41.4332 62.2147 41.4332Z" fill="#2A428C"/>
<path d="M47.1483 41.4332H43.2529C43.0172 41.4332 42.7927 41.4796 42.5859 41.561C43.2602 41.8272 43.738 42.4831 43.738 43.252V47.1474C43.738 47.9164 43.2602 48.5723 42.5859 48.8385C42.7927 48.9201 43.0172 48.9665 43.2529 48.9665H47.1483C48.153 48.9665 48.9673 48.1521 48.9673 47.1477V43.2523C48.9671 42.2476 48.153 41.4332 47.1483 41.4332Z" fill="#2A428C"/>
<path d="M32.0819 41.4332H28.1865C27.9508 41.4332 27.7263 41.4796 27.5195 41.561C28.1938 41.8272 28.6714 42.4831 28.6714 43.252V47.1474C28.6714 47.9164 28.1936 48.5723 27.5195 48.8385C27.7263 48.9201 27.9508 48.9665 28.1865 48.9665H32.0819C33.0865 48.9665 33.9009 48.1521 33.9009 47.1477V43.2523C33.9009 42.2476 33.0865 41.4332 32.0819 41.4332Z" fill="#2A428C"/>
<path d="M17.0145 41.4332H13.1191C12.8834 41.4332 12.6589 41.4796 12.4521 41.561C13.1264 41.8272 13.6042 42.4831 13.6042 43.252V47.1474C13.6042 47.9164 13.1264 48.5723 12.4521 48.8385C12.6589 48.9201 12.8834 48.9665 13.1191 48.9665H17.0145C18.0192 48.9665 18.8336 48.1521 18.8336 47.1477V43.2523C18.8333 42.2476 18.0189 41.4332 17.0145 41.4332Z" fill="#2A428C"/>
<path d="M17.0145 56.5H13.1191C12.8834 56.5 12.6589 56.5463 12.4521 56.6278C13.1264 56.894 13.6042 57.5499 13.6042 58.3188V62.2144C13.6042 62.9834 13.1264 63.6393 12.4521 63.9055C12.6589 63.9871 12.8834 64.0335 13.1191 64.0335H17.0145C18.0192 64.0335 18.8336 63.2191 18.8336 62.2147V58.319C18.8333 57.3144 18.0189 56.5 17.0145 56.5Z" fill="#2A428C"/>
<path d="M17.0145 71.5667H13.1191C12.8834 71.5667 12.6589 71.6131 12.4521 71.6945C13.1264 71.9607 13.6042 72.6166 13.6042 73.3856V77.2812C13.6042 78.0501 13.1264 78.7061 12.4521 78.9722C12.6589 79.0539 12.8834 79.1002 13.1191 79.1002H17.0145C18.0192 79.1002 18.8336 78.2858 18.8336 77.2814V73.3858C18.8333 72.3809 18.0189 71.5667 17.0145 71.5667Z" fill="#2A428C"/>
<path d="M32.0819 56.5H28.1865C27.9508 56.5 27.7263 56.5463 27.5195 56.6278C28.1938 56.894 28.6714 57.5499 28.6714 58.3188V62.2144C28.6714 62.9834 28.1936 63.6393 27.5195 63.9055C27.7263 63.9871 27.9508 64.0335 28.1865 64.0335H32.0819C33.0865 64.0335 33.9009 63.2191 33.9009 62.2147V58.319C33.9009 57.3144 33.0865 56.5 32.0819 56.5Z" fill="#2A428C"/>
<path d="M32.0819 71.5667H28.1865C27.9508 71.5667 27.7263 71.6131 27.5195 71.6945C28.1938 71.9607 28.6714 72.6166 28.6714 73.3856V77.2812C28.6714 78.0501 28.1936 78.7061 27.5195 78.9722C27.7263 79.0539 27.9508 79.1002 28.1865 79.1002H32.0819C33.0865 79.1002 33.9009 78.2858 33.9009 77.2814V73.3858C33.9009 72.3809 33.0865 71.5667 32.0819 71.5667Z" fill="#2A428C"/>
<path d="M47.1483 56.5H43.2529C43.0172 56.5 42.7927 56.5463 42.5859 56.6278C43.2602 56.894 43.738 57.5499 43.738 58.3188V62.2144C43.738 62.9834 43.2602 63.6393 42.5859 63.9055C42.7927 63.9871 43.0172 64.0335 43.2529 64.0335H47.1483C48.153 64.0335 48.9673 63.2191 48.9673 62.2147V58.319C48.9671 57.3144 48.153 56.5 47.1483 56.5Z" fill="#2A428C"/>
<path d="M64.0337 64.0333V58.3188C64.0337 57.3142 63.2194 56.5 62.2147 56.5H58.3193C58.0836 56.5 57.8591 56.5463 57.6523 56.6278C58.3266 56.894 58.8044 57.5499 58.8044 58.3188V62.2144C58.8044 62.9834 58.3266 63.6393 57.6523 63.9055C57.8591 63.9871 58.0836 64.0335 58.3193 64.0335H64.0337V64.0333Z" fill="#2A428C"/>
<path d="M47.1483 71.5667H43.2529C43.0172 71.5667 42.7927 71.6131 42.5859 71.6945C43.2602 71.9607 43.738 72.6166 43.738 73.3856V77.2812C43.738 78.0501 43.2602 78.7061 42.5859 78.9722C42.7927 79.0539 43.0172 79.1002 43.2529 79.1002H47.1483C48.153 79.1002 48.9673 78.2858 48.9673 77.2814V73.3858C48.9671 72.3809 48.153 71.5667 47.1483 71.5667Z" fill="#2A428C"/>
<path d="M96.4727 31.7197V65.5484V86.6333H101.706V65.5484V33.9L96.4727 31.7197Z" fill="#D3DCFB"/>
<path d="M101.705 33.9V15.0665C101.705 10.906 98.3324 7.53348 94.1721 7.53348H11.2977C7.13721 7.53348 3.76465 10.906 3.76465 15.0665V33.9H101.705Z" fill="#FF4155"/>
<path d="M27.5011 16.7719H22.5977C21.6558 16.7719 20.8926 16.0085 20.8926 15.0667C20.8926 14.125 21.656 13.3616 22.5977 13.3616H27.5011C28.4431 13.3616 29.2062 14.125 29.2062 15.0667C29.2062 16.0085 28.4428 16.7719 27.5011 16.7719Z" fill="#E80054"/>
<path d="M39.548 16.7719H34.6446C33.7026 16.7719 32.9395 16.0085 32.9395 15.0667C32.9395 14.125 33.7029 13.3616 34.6446 13.3616H39.548C40.4899 13.3616 41.2531 14.125 41.2531 15.0667C41.2531 16.0085 40.4899 16.7719 39.548 16.7719Z" fill="#E80054"/>
<path d="M70.8197 16.7719H65.9161C64.9741 16.7719 64.2109 16.0085 64.2109 15.0667C64.2109 14.125 64.9744 13.3616 65.9161 13.3616H70.8197C71.7616 13.3616 72.5248 14.125 72.5248 15.0667C72.5248 16.0085 71.7616 16.7719 70.8197 16.7719Z" fill="#E80054"/>
<path d="M82.8666 16.7719H77.963C77.021 16.7719 76.2578 16.0085 76.2578 15.0667C76.2578 14.125 77.0212 13.3616 77.963 13.3616H82.8666C83.8085 13.3616 84.5717 14.125 84.5717 15.0667C84.5717 16.0085 83.8083 16.7719 82.8666 16.7719Z" fill="#E80054"/>
<path d="M35.7808 14.125C35.7808 16.7253 33.6728 18.8333 31.0725 18.8333C28.4722 18.8333 26.3643 16.7253 26.3643 14.125V4.70826C26.364 2.10794 28.472 0 31.0723 0C33.6726 0 35.7806 2.10794 35.7806 4.70826V14.125H35.7808Z" fill="#EBF5FC"/>
<path d="M79.1003 14.125C79.1003 16.7253 76.9924 18.8333 74.3921 18.8333C71.7918 18.8333 69.6836 16.7253 69.6836 14.125V4.70826C69.6836 2.10794 71.7915 0 74.3919 0C76.9922 0 79.1001 2.10794 79.1001 4.70826V14.125H79.1003Z" fill="#EBF5FC"/>
<path d="M74.3925 0C73.4258 0 72.528 0.292211 71.7803 0.791883C73.0438 1.63629 73.8765 3.07462 73.8765 4.70848V14.125C73.8765 15.7586 73.0438 17.1972 71.7803 18.0416C72.5278 18.541 73.4258 18.8335 74.3925 18.8335C76.9928 18.8335 79.1008 16.7255 79.1008 14.1252V4.70826C79.101 2.10794 76.9931 0 74.3925 0V0Z" fill="#D3DCFB"/>
<path d="M31.0722 0C30.1055 0 29.2077 0.292211 28.46 0.791883C29.7235 1.63629 30.5562 3.07462 30.5562 4.70848V14.125C30.5562 15.7586 29.7235 17.1972 28.46 18.0416C29.2075 18.541 30.1055 18.8335 31.0722 18.8335C33.6725 18.8335 35.7805 16.7255 35.7805 14.1252V4.70826C35.7807 2.10794 33.6728 0 31.0722 0V0Z" fill="#D3DCFB"/>
<path d="M94.1727 7.53326H88.9414C93.1019 7.53326 96.4745 10.9058 96.4745 15.0663V33.9H101.706V15.0665C101.706 10.906 98.333 7.53326 94.1727 7.53326Z" fill="#E80054"/>
<path d="M3.76465 24.6614H101.705V28.0719H3.76465V24.6614Z" fill="#E80054"/>
<path d="M80.9853 113C96.5874 113 109.235 100.352 109.235 84.75C109.235 69.148 96.5874 56.5 80.9853 56.5C65.3833 56.5 52.7354 69.148 52.7354 84.75C52.7354 100.352 65.3833 113 80.9853 113Z" fill="#4FABF7"/>
<path d="M80.9853 105.467C92.4268 105.467 101.702 96.1916 101.702 84.75C101.702 73.3085 92.4268 64.0333 80.9853 64.0333C69.5438 64.0333 60.2686 73.3085 60.2686 84.75C60.2686 96.1916 69.5438 105.467 80.9853 105.467Z" fill="#EBF5FC"/>
<path d="M80.9854 82.6884C80.0435 82.6884 79.2803 81.925 79.2803 80.9833V71.5665C79.2803 70.6248 80.0437 69.8614 80.9854 69.8614C81.9274 69.8614 82.6906 70.6248 82.6906 71.5665V80.9833C82.6906 81.925 81.9272 82.6884 80.9854 82.6884Z" fill="#3C58A0"/>
<path d="M90.4022 86.4552H84.752C83.8101 86.4552 83.0469 85.6917 83.0469 84.75C83.0469 83.8083 83.8103 83.0449 84.752 83.0449H90.4022C91.3442 83.0449 92.1074 83.8083 92.1074 84.75C92.1074 85.6917 91.344 86.4552 90.4022 86.4552Z" fill="#3C58A0"/>
<path d="M80.985 56.5C80.1033 56.5 79.2315 56.5426 78.3703 56.6216C92.7463 57.9412 104.005 70.0298 104.005 84.75C104.005 99.4702 92.7461 111.559 78.3701 112.878C79.2313 112.957 80.1031 113 80.9848 113C96.5867 113 109.235 100.352 109.235 84.75C109.235 69.1481 96.587 56.5 80.985 56.5Z" fill="#1886EA"/>
<path d="M80.985 64.0333C80.1 64.0333 79.228 64.0891 78.3721 64.1968C88.58 65.4815 96.4759 74.1936 96.4759 84.75C96.4759 95.3065 88.58 104.018 78.3721 105.303C79.228 105.411 80.1 105.467 80.985 105.467C92.4264 105.467 101.702 96.1915 101.702 84.75C101.702 73.3085 92.4264 64.0333 80.985 64.0333Z" fill="#D3DCFB"/>
<path d="M80.9845 88.5167C83.0648 88.5167 84.7513 86.8303 84.7513 84.75C84.7513 82.6697 83.0648 80.9833 80.9845 80.9833C78.9042 80.9833 77.2178 82.6697 77.2178 84.75C77.2178 86.8303 78.9042 88.5167 80.9845 88.5167Z" fill="#FFDD40"/>
</g>
<defs>
<clipPath id="clip0">
<rect width="113" height="113" fill="white"/>
</clipPath>
</defs>
</svg>
