<svg width="146" height="146" viewBox="0 0 146 146" fill="none" xmlns="http://www.w3.org/2000/svg">
<g clip-path="url(#clip0)">
<path d="M73.0071 137.827L101.93 130.523C118.439 116.814 128.955 96.1372 128.955 73.0016C128.955 37.316 103.943 7.47243 70.4943 0.0438232C31.3378 1.36438 0 33.5232 0 73.0013C0 93.2794 8.26953 111.625 21.6183 124.853L73.0071 137.827Z" fill="#CBE2FF"/>
<path d="M127.441 73C127.441 96.9289 115.926 118.166 98.1368 131.48L124.38 124.852C137.73 111.624 146.001 93.2786 146.001 73C146.001 32.6832 113.317 0 73.0005 0C69.857 0 66.7596 0.199039 63.7207 0.58457C99.6558 5.14365 127.441 35.827 127.441 73Z" fill="#BED8FB"/>
<path d="M91.142 27.6465C91.142 23.9181 88.1196 20.8957 84.3912 20.8957H61.1276C52.5469 20.8957 45.5908 27.8518 45.5908 36.4325V53.6824H100.4V36.6771C100.4 32.9487 97.378 29.9263 93.6496 29.9263H93.4221C92.1628 29.9263 91.142 28.9058 91.142 27.6465Z" fill="#365E7D"/>
<path d="M93.649 29.9264H93.4215C92.1622 29.9264 91.1413 28.9055 91.1413 27.6463C91.1413 23.9179 88.119 20.8955 84.3906 20.8955H81.8398V53.6822H100.4V36.6769C100.4 32.9491 97.3771 29.9264 93.649 29.9264Z" fill="#2B4D66"/>
<path d="M121.204 106.18C119.419 104.417 117.211 103.053 114.705 102.26L94.7753 95.9502L73.0042 95.1851L51.224 95.9502L31.2941 102.26C24.5519 104.395 19.9697 110.652 19.9697 117.724V123.169C32.7416 136.665 50.6101 145.288 70.4946 145.958C92.7733 141.01 111.309 126.118 121.204 106.18Z" fill="#4A80AA"/>
<path d="M126.029 123.168V117.723C126.029 112.723 123.736 108.132 120.011 105.116C109.428 126.681 88.5233 142.262 63.7363 145.413C66.7282 145.792 69.7754 145.994 72.8687 146C75.8409 145.995 78.7738 145.823 81.6584 145.492C99.0618 143.435 114.59 135.256 126.029 123.168Z" fill="#407093"/>
<path d="M74.6523 144.907C79.0691 136.139 90.5703 111.24 87.2907 95.6869L73.0041 90.1266L58.7041 95.6872C55.3233 111.72 67.6494 137.684 71.7303 145.672C72.7118 145.437 73.6862 145.181 74.6523 144.907Z" fill="#E4F6FF"/>
<path d="M82.1804 137.956L76.3877 115.167H69.6104L63.832 137.893L70.9775 145.848C72.7914 145.433 74.5801 144.951 76.3413 144.406L82.1804 137.956Z" fill="#E28086"/>
<path d="M71.09 145.973C71.6817 145.989 72.2746 145.999 72.8697 146C73.5583 145.999 74.2447 145.987 74.9291 145.968L78.6096 141.902C75.7127 142.918 72.7325 143.757 69.6816 144.405L71.09 145.973Z" fill="#DD636E"/>
<path d="M85.1966 93.5837V80.7329H60.793V93.5837C60.793 100.323 72.9948 107.684 72.9948 107.684C72.9948 107.684 85.1966 100.323 85.1966 93.5837Z" fill="#FFDDCE"/>
<path d="M100.4 51.419H95.7355C93.1412 51.419 91.0382 49.316 91.0382 46.7216V44.1509C91.0382 40.7716 87.7318 38.3822 84.5232 39.4427C77.0398 41.9162 68.9597 41.9167 61.476 39.4444L61.4672 39.4416C58.2586 38.3817 54.9528 40.771 54.9528 44.1501V46.7219C54.9528 49.3163 52.8498 51.4193 50.2554 51.4193H45.5908V59.1008C45.5908 61.0636 47.182 62.655 49.145 62.655C49.7644 62.655 50.2682 63.1401 50.3073 63.7583C51.0567 75.6402 60.9251 85.0463 72.9958 85.0463C85.0664 85.0463 94.9348 75.6402 95.6842 63.7583C95.7233 63.1403 96.2272 62.655 96.8465 62.655C98.8092 62.655 100.401 61.0638 100.401 59.1008V51.419H100.4Z" fill="#FFDDCE"/>
<path d="M95.7353 51.419C93.141 51.419 91.038 49.3159 91.038 46.7216V44.1509C91.038 40.7715 87.7316 38.3822 84.523 39.4427C83.6367 39.7355 82.7416 39.991 81.8405 40.2146V65.5855C81.7156 73.8402 77.1925 81.0245 70.5127 84.9072C71.3285 84.9958 72.156 85.0457 72.9953 85.0457C85.0659 85.0457 94.9343 75.6396 95.6837 63.7577C95.7228 63.1397 96.2267 62.6544 96.846 62.6544C98.8087 62.6544 100.4 61.0632 100.4 59.1002V51.4187H95.7353V51.419Z" fill="#FFCBBE"/>
<path d="M60.7929 90.1266L51.2236 97.902L61.2588 110.31C62.4796 111.499 64.401 111.572 65.7087 110.479L73.2554 104.175L60.7929 90.1266Z" fill="#F4FBFF"/>
<path d="M85.2006 90.1266L73.2549 104.175L80.3479 110.24C81.6473 111.351 83.5778 111.295 84.8108 110.111L94.7742 97.902L85.2006 90.1266Z" fill="#F4FBFF"/>
<path d="M60.7932 90.1266L46.7476 97.0271C45.6783 97.5524 45.2488 98.8533 45.7949 99.9121L48.5466 105.247C49.2598 106.63 48.9966 108.314 47.8959 109.413C47.3293 109.979 46.7156 110.591 46.1838 111.122C45.232 112.073 44.8901 113.476 45.3093 114.754C48.6316 124.882 64.6215 140.369 70.6728 145.973C71.0797 145.984 71.4875 145.991 71.8961 145.996C67.5078 137.46 51.9574 105.031 60.7932 90.1266Z" fill="#365E7D"/>
<path d="M98.099 109.413C96.998 108.314 96.7351 106.629 97.4483 105.247L100.2 99.9118C100.746 98.853 100.317 97.5521 99.2473 97.0269L85.2017 90.1266C94.0352 105.027 78.4957 137.442 74.1025 145.989C74.5154 145.982 74.9275 145.971 75.3387 145.958C81.4025 140.342 97.3664 124.873 100.686 114.755C101.105 113.477 100.763 112.073 99.8111 111.123C99.2793 110.591 98.6656 109.979 98.099 109.413Z" fill="#365E7D"/>
<path d="M73.2564 104.175L65.8252 110.382L69.6115 115.167H76.3888L80.1754 110.099L73.2564 104.175Z" fill="#DD636E"/>
</g>
<defs>
<clipPath id="clip0">
<rect width="146" height="146" fill="white"/>
</clipPath>
</defs>
</svg>
