<svg width="363" height="430" viewBox="0 0 363 430" fill="none" xmlns="http://www.w3.org/2000/svg">
<path d="M340.679 88.7459C374.648 140.965 363.801 219.243 339.973 283.127C316.245 346.926 279.639 396.287 231.676 417.487C183.817 438.682 124.7 431.685 79.4773 406.03C34.151 380.366 2.71527 336.071 0.182319 293.874C-2.45466 251.809 23.9107 211.942 53.519 160.736C83.1274 109.53 116.182 46.9658 172.057 28.715C228.026 10.4642 306.71 36.6395 340.679 88.7459Z" fill="#F2F2F2"/>
<path fill-rule="evenodd" clip-rule="evenodd" d="M157.519 90.2069L156.162 83.3544C155.779 81.4384 154.651 79.7527 153.027 78.6673C151.402 77.5819 149.413 77.1854 147.496 77.5648L120.208 82.9925C118.292 83.3758 116.606 84.5036 115.521 86.1284C114.436 87.7531 114.039 89.7421 114.419 91.6588L134.32 191.561C134.509 192.51 134.883 193.413 135.421 194.218C135.958 195.023 136.649 195.714 137.454 196.251C138.259 196.789 139.162 197.163 140.111 197.351C141.06 197.54 142.037 197.54 142.987 197.351L160.971 193.768C163.354 193.158 166.489 192.235 166.489 192.235L157.519 90.2069Z" fill="#6BD5E1"/>
<path fill-rule="evenodd" clip-rule="evenodd" d="M231.025 407.247L233.218 414.131L251.533 409.924L249.981 401.688L231.025 407.247Z" fill="#E49D75"/>
<path fill-rule="evenodd" clip-rule="evenodd" d="M117.024 347.338L110.307 350.545L119.38 366.692L127.269 361.554L117.024 347.338Z" fill="#E49D75"/>
<path fill-rule="evenodd" clip-rule="evenodd" d="M158.573 178.236C158.573 178.236 176.978 275.072 182.292 288.148C175.241 293.874 116.662 347.46 116.662 347.46L126.613 362.051L211.421 313.496L193.985 168.371L158.573 178.236Z" fill="#56CAD8"/>
<path fill-rule="evenodd" clip-rule="evenodd" d="M170.492 181.891C174.816 192.687 230.975 407.396 230.975 407.396L250.628 402.212L233.35 165.911C233.35 165.911 166.172 171.094 170.492 181.891Z" fill="#6BD5E1"/>
<path fill-rule="evenodd" clip-rule="evenodd" d="M180.501 71.2686C223.896 61.8107 239.275 155.109 236.335 166.734C233.395 178.358 164.783 189.802 159.754 182.764C154.724 175.726 134.614 81.2692 180.501 71.2686Z" fill="#FFD98E"/>
<path fill-rule="evenodd" clip-rule="evenodd" d="M168.805 47.9111C171.663 55.2793 172.744 66.3338 173.441 77.0039C177.276 80.342 188.625 79.2293 190.213 77.2572C188.942 73.892 189.258 63.4752 189.959 60.2367C190.66 56.9981 167.208 43.7996 168.805 47.9111Z" fill="#D18C65"/>
<path fill-rule="evenodd" clip-rule="evenodd" d="M239.049 63.1948L252.804 10.2969L258.955 11.8935L245.2 64.8141L239.049 63.1948Z" fill="#DFDFDF"/>
<path d="M242.79 58.2103L246.313 59.115" stroke="white" stroke-width="1.01" stroke-linecap="square" stroke-linejoin="round"/>
<path d="M244.599 51.2538L248.122 52.1584" stroke="white" stroke-width="1.01" stroke-linecap="square" stroke-linejoin="round"/>
<path d="M246.403 44.2972L249.931 45.2018" stroke="white" stroke-width="1.01" stroke-linecap="square" stroke-linejoin="round"/>
<path d="M248.213 37.3406L251.741 38.2452" stroke="white" stroke-width="1.01" stroke-linecap="square" stroke-linejoin="round"/>
<path d="M250.022 30.384L253.545 31.2887" stroke="white" stroke-width="1.01" stroke-linecap="square" stroke-linejoin="round"/>
<path d="M251.831 23.4275L255.355 24.3321" stroke="white" stroke-width="1.01" stroke-linecap="square" stroke-linejoin="round"/>
<path d="M253.64 16.4709L257.164 17.3755" stroke="white" stroke-width="1.01" stroke-linecap="square" stroke-linejoin="round"/>
<path fill-rule="evenodd" clip-rule="evenodd" d="M259.597 43.1347C263.27 41.8411 265.767 45.238 266.771 48.2594C268.381 53.1173 267.314 57.5499 265.767 58.2103C264.907 58.5926 263.944 58.6733 263.032 58.4393C262.121 58.2054 261.315 57.6704 260.746 56.9212C260.638 58.2465 260.448 59.3501 258.032 60.3995C254.414 61.969 250.415 57.2333 249.47 54.7908C248.213 51.5794 248.805 46.7849 251.506 45.627C253.731 44.6726 255.251 45.3601 255.952 46.2376C256.942 44.6771 258.055 43.6775 259.597 43.1347Z" fill="#56CAD8"/>
<path fill-rule="evenodd" clip-rule="evenodd" d="M257.259 33.3648C262.574 33.8171 258.58 42.2256 256.074 44.0167C254.301 42.5196 252.116 32.926 257.259 33.3648Z" fill="#FD8369"/>
<path fill-rule="evenodd" clip-rule="evenodd" d="M161.373 132.611C160.993 140.604 158.863 162.034 174.902 165.743C190.158 169.276 240.306 135.28 249.312 133.254C258.317 131.227 258.467 134.43 265.003 131.978C277.889 127.138 275.406 121.828 274.388 116.378C268.933 118.151 191.366 137.184 188.747 137.872C187.63 135.39 187.025 132.709 186.97 129.988C186.97 129.988 161.753 124.619 161.373 132.611Z" fill="#E49D75"/>
<path fill-rule="evenodd" clip-rule="evenodd" d="M171.075 88.4294C192.678 87.38 194.234 131.707 191.058 134.615C187.883 137.523 157.859 139.645 155.597 136.338C153.335 133.032 152.019 89.3566 171.075 88.4294Z" fill="#FFE4AD"/>
<path fill-rule="evenodd" clip-rule="evenodd" d="M217.284 114.406C212.172 115.69 208.902 120.195 209.979 124.465C211.055 128.735 216.067 131.173 221.182 129.866L276.898 115.844L273.008 100.384L217.284 114.406Z" fill="#FD8369"/>
<path fill-rule="evenodd" clip-rule="evenodd" d="M216.505 103.315L295.389 83.3725L298.103 94.1285L219.219 114.066L216.505 103.315Z" fill="#DFDFDF"/>
<path fill-rule="evenodd" clip-rule="evenodd" d="M214.493 84.8923L271.588 70.459L276.138 88.4565L219.038 102.89L214.493 84.8923Z" fill="#56CAD8"/>
<path fill-rule="evenodd" clip-rule="evenodd" d="M195.206 78.379L274.103 58.4365L276.817 69.2061L197.934 89.144L195.206 78.379Z" fill="#FD8369"/>
<path d="M218.55 115.98L221.377 127.378" stroke="#6BD5E1" stroke-width="1.36" stroke-linecap="square" stroke-linejoin="round"/>
<path fill-rule="evenodd" clip-rule="evenodd" d="M220.608 90.1979L236.719 86.1271L238.004 91.2065L221.892 95.2774L220.608 90.1979Z" fill="#DFDFDF"/>
<path d="M200.874 82.5854L233.395 74.2584" stroke="#FFD98E" stroke-width="2.42" stroke-linecap="round" stroke-linejoin="round"/>
<path fill-rule="evenodd" clip-rule="evenodd" d="M95.6475 357.922L121.493 405.772L128.779 401.927L120.66 366.647L110.366 350.4L95.6475 357.922Z" fill="#2B2B2B"/>
<path fill-rule="evenodd" clip-rule="evenodd" d="M235.494 429.989L289.039 420.49L287.682 412.349L251.623 408.961L232.974 413.633L235.494 429.989Z" fill="#2B2B2B"/>
<path fill-rule="evenodd" clip-rule="evenodd" d="M200.417 14.2772C198.377 3.16838 187.458 -1.60805 177.81 0.477117C161.034 4.09562 152.933 13.1419 142.914 14.829C127.716 17.371 113.563 11.6628 97.6104 15.8693C75.9899 21.5685 72.7739 37.0059 75.8994 50.8557C81.1055 73.7654 100.813 78.8991 115.59 76.7371C137.12 73.5709 137.486 58.3913 150.988 56.0709C157.298 54.9899 161.391 56.3739 167.809 55.1663C174.228 53.9586 184.644 45.636 187.711 42.4653C190.778 39.2946 201.629 20.8719 200.417 14.2772Z" fill="black"/>
<path fill-rule="evenodd" clip-rule="evenodd" d="M166.177 38.9373C163.915 25.5308 170.18 13.6394 180.171 12.3775C190.163 11.1155 200.105 20.9624 202.366 34.378C204.628 47.7936 198.363 59.6759 188.372 60.9378C178.38 62.1998 168.438 52.3439 166.177 38.9373Z" fill="#E49D75"/>
<path fill-rule="evenodd" clip-rule="evenodd" d="M196.305 17.6424C197.956 26.4354 172.36 40.5973 164.309 42.3749C156.258 44.1525 153.191 27.5481 153.191 27.5481C153.191 27.5481 180.425 -4.35357 196.305 17.6424Z" fill="black"/>
<path fill-rule="evenodd" clip-rule="evenodd" d="M163.508 45.9481C163.507 44.9968 163.789 44.0666 164.316 43.2752C164.844 42.4838 165.595 41.8668 166.474 41.5024C167.353 41.1379 168.32 41.0423 169.253 41.2277C170.186 41.413 171.043 41.8711 171.716 42.5438C172.389 43.2165 172.847 44.0736 173.032 45.0067C173.217 45.9398 173.122 46.9069 172.757 47.7856C172.393 48.6644 171.776 49.4153 170.985 49.9432C170.193 50.4712 169.263 50.7526 168.312 50.7517C167.038 50.7517 165.816 50.2456 164.915 49.3447C164.014 48.4439 163.508 47.2221 163.508 45.9481V45.9481Z" fill="#E49D75"/>
<path d="M154.692 86.0773C157.013 84.1451 159.761 82.7931 162.707 82.1331" stroke="#6BD5E1" stroke-width="4" stroke-linecap="round" stroke-linejoin="round"/>
<path d="M162.726 82.1332C176.901 79.0212 192.067 93.2148 196.595 113.84C198.404 122.014 198.246 129.97 196.536 136.791" stroke="#6BD5E1" stroke-width="4" stroke-linecap="round" stroke-linejoin="round"/>
</svg>
