<svg width="99" height="104" viewBox="0 0 99 104" fill="none" xmlns="http://www.w3.org/2000/svg">
<path d="M67.3732 100.158V12.3983C67.3732 10.2765 65.4839 8.55664 63.1532 8.55664H4.21976C1.88911 8.55664 0 10.2767 0 12.3983V100.158C0 102.28 1.88933 104 4.21976 104H63.1534C65.4839 104 67.3732 102.28 67.3732 100.158Z" fill="#FFC250"/>
<path d="M76.9891 8.55664H62.8662C65.1969 8.55664 67.0862 10.2767 67.0862 12.3983V100.158C67.0862 102.28 65.1969 104 62.8662 104H76.9891C79.3198 104 81.2091 102.28 81.2091 100.158V12.3985C81.2091 10.2767 79.3198 8.55664 76.9891 8.55664Z" fill="#EAB14D"/>
<path d="M6.89648 96.3476V16.2091C6.89648 15.4506 7.57185 14.8359 8.40474 14.8359H72.8027C73.6358 14.8359 74.3109 15.4508 74.3109 16.2091V96.3476C74.3109 97.106 73.6356 97.7207 72.8027 97.7207H8.40474C7.57163 97.7207 6.89648 97.106 6.89648 96.3476Z" fill="#F5F5F5"/>
<path d="M72.8046 14.8359H58.6816C59.5148 14.8359 60.1899 15.4508 60.1899 16.2091V96.3476C60.1899 97.106 59.5145 97.7207 58.6816 97.7207H72.8046C73.6377 97.7207 74.3128 97.1058 74.3128 96.3476V16.2091C74.3128 15.4508 73.6377 14.8359 72.8046 14.8359Z" fill="#EAEAEA"/>
<path d="M49.569 4.78116V2.75864C49.569 1.2352 48.2125 0 46.5389 0H34.6699C32.9963 0 31.6397 1.2352 31.6397 2.75864V4.78116C31.6397 5.40414 31.0849 5.90931 30.4006 5.90931H25.4608C23.8176 5.90931 22.4854 7.12217 22.4854 8.61819V14.8358H58.7234V8.61819C58.7234 7.12217 57.3912 5.90931 55.7479 5.90931H50.8082C50.1239 5.90931 49.569 5.40414 49.569 4.78116Z" fill="#C2D0DA"/>
<path d="M15.6699 37.1296V25.036C15.6699 23.6962 16.8631 22.6099 18.3348 22.6099H31.6186C33.0903 22.6099 34.2835 23.6962 34.2835 25.036V37.1296C34.2835 38.4695 33.0903 39.5558 31.6186 39.5558H18.3348C16.8629 39.5558 15.6699 38.4695 15.6699 37.1296Z" fill="#66B49D"/>
<path d="M15.6699 62.3254V50.2318C15.6699 48.892 16.8631 47.8057 18.3348 47.8057H31.6186C33.0903 47.8057 34.2835 48.892 34.2835 50.2318V62.3254C34.2835 63.6653 33.0903 64.7516 31.6186 64.7516H18.3348C16.8629 64.7516 15.6699 63.6653 15.6699 62.3254Z" fill="#66B49D"/>
<path d="M15.6699 87.5208V75.4271C15.6699 74.0873 16.8631 73.001 18.3348 73.001H31.6186C33.0903 73.001 34.2835 74.0873 34.2835 75.4271V87.5208C34.2835 88.8606 33.0903 89.9469 31.6186 89.9469H18.3348C16.8629 89.9469 15.6699 88.8608 15.6699 87.5208Z" fill="#66B49D"/>
<path d="M23.8515 35.4138C23.8495 35.4138 23.8478 35.4138 23.8457 35.4138C23.0847 35.4122 22.3629 35.0766 21.9147 34.5166L19.9018 31.9999C19.3413 31.2991 19.5109 30.3174 20.2806 29.8072C21.0503 29.2971 22.1287 29.4515 22.6889 30.1521L23.856 31.6115L27.2685 27.3906C27.833 26.6924 28.912 26.5433 29.6786 27.057C30.4455 27.5708 30.6095 28.5533 30.045 29.2514L25.7808 34.5255C25.3312 35.0819 24.6101 35.4138 23.8515 35.4138Z" fill="#F6F9F9"/>
<path d="M23.8513 61.1574C23.8491 61.1574 23.8471 61.1574 23.8451 61.1574C23.084 61.1556 22.3623 60.8202 21.9142 60.2598L19.9018 57.7435C19.3413 57.0427 19.5109 56.061 20.2806 55.5508C21.0503 55.0407 22.1287 55.1951 22.6889 55.8957L23.856 57.3551L27.2685 53.1342C27.833 52.4362 28.912 52.2869 29.6786 52.8006C30.4455 53.3143 30.6095 54.2969 30.045 54.995L25.7808 60.2691C25.3312 60.8259 24.6101 61.1574 23.8513 61.1574Z" fill="#F6F9F9"/>
<path d="M23.8522 85.8049C23.8502 85.8049 23.8482 85.8049 23.8464 85.8047C23.0856 85.8031 22.3636 85.4677 21.9156 84.9079L19.9026 82.3908C19.3422 81.69 19.512 80.7085 20.2817 80.1982C21.0519 79.688 22.1298 79.8427 22.69 80.5433L23.8569 82.0026L27.2697 77.7816C27.8341 77.0837 28.9131 76.9344 29.6797 77.4481C30.4466 77.9618 30.6106 78.9443 30.0461 79.6425L25.7819 84.9166C25.3319 85.473 24.611 85.8049 23.8522 85.8049Z" fill="#F6F9F9"/>
<path d="M64.1791 29.3731H42.8683C41.9163 29.3731 41.1445 28.6705 41.1445 27.8037C41.1445 26.937 41.9163 26.2344 42.8683 26.2344H64.1791C65.1311 26.2344 65.9029 26.937 65.9029 27.8037C65.9029 28.6705 65.1311 29.3731 64.1791 29.3731Z" fill="#DDEAFB"/>
<path d="M53.5236 35.9312H42.8683C41.9163 35.9312 41.1445 35.2286 41.1445 34.3618C41.1445 33.4951 41.9163 32.7925 42.8683 32.7925H53.5236C54.4756 32.7925 55.2474 33.4951 55.2474 34.3618C55.2474 35.2286 54.4756 35.9312 53.5236 35.9312Z" fill="#DDEAFB"/>
<path d="M57.1668 54.5684H42.8683C41.9163 54.5684 41.1445 53.8658 41.1445 52.999C41.1445 52.1323 41.9163 51.4297 42.8683 51.4297H57.1668C58.1189 51.4297 58.8906 52.1323 58.8906 52.999C58.8906 53.8658 58.1189 54.5684 57.1668 54.5684Z" fill="#DDEAFB"/>
<path d="M53.5236 61.1265H42.8683C41.9163 61.1265 41.1445 60.4239 41.1445 59.5571C41.1445 58.6904 41.9163 57.9878 42.8683 57.9878H53.5236C54.4756 57.9878 55.2474 58.6904 55.2474 59.5571C55.2474 60.4239 54.4756 61.1265 53.5236 61.1265Z" fill="#DDEAFB"/>
<path d="M91.8925 40.9737L90.2 38.9437L83.8669 35.2925L81.4325 34.9434L49.0039 81.5957C48.2215 82.7206 47.6474 83.955 47.3047 85.2493C51.2502 85.2938 54.8315 87.3584 56.5626 90.5866C57.7014 89.7512 58.6815 88.751 59.464 87.6261L91.8925 40.9737Z" fill="#FC8086"/>
<path d="M96.471 26.6077L93.7345 25.03C91.6013 23.8001 88.7766 24.378 87.4264 26.3205L84.917 29.9306L85.7175 31.3998L93.3324 35.7899L95.3773 35.961L97.8882 32.3486C99.2376 30.4071 98.6033 27.837 96.471 26.6077Z" fill="#8C9BA6"/>
<path d="M81.4365 34.9302L84.9226 29.9174L95.3846 35.9478L91.8985 40.9606L81.4365 34.9302Z" fill="#C9E2E7"/>
<path d="M56.5636 90.5868L47.33 97.361C46.0275 98.3167 44.135 97.2258 44.527 95.7452L47.3057 85.2495C51.2513 85.2938 54.8327 87.3586 56.5636 90.5868Z" fill="#7C8B96"/>
<path d="M54.1413 87.6786L88.1348 38.8072L85.222 37.1279L51.2285 85.9994C52.295 86.4085 53.2789 86.9758 54.1413 87.6786Z" fill="#FB636F"/>
</svg>
