<svg width="99" height="99" viewBox="0 0 512 494" fill="none" xmlns="http://www.w3.org/2000/svg">
<path d="M512 15V400L256 454.47L0 400V15C0 6.72 6.72 0 15 0H497C505.28 0 512 6.72 512 15Z" fill="#EDF5FF"/>
<path d="M512 15V400L256 454.47V0H497C505.28 0 512 6.72 512 15Z" fill="#D5E8FE"/>
<path d="M512 400H0V479C0 487.284 6.716 494 15 494H497C505.284 494 512 487.284 512 479V400Z" fill="#5F55AF"/>
<path d="M256 494H497C505.284 494 512 487.284 512 479V400H256V494Z" fill="#453D83"/>
<path d="M439.481 105.875C437.199 102.616 433.716 100.397 429.798 99.707L303.744 77.479C299.827 76.787 295.794 77.682 292.536 79.964C289.277 82.246 287.058 85.729 286.368 89.647L272.476 168.432C271.038 176.59 276.485 184.37 284.643 185.808L410.699 208.035C411.58 208.191 412.456 208.265 413.321 208.265C420.463 208.265 426.792 203.144 428.075 195.868L441.967 117.083C442.657 113.165 441.764 109.133 439.481 105.875V105.875Z" fill="#59C36A"/>
<path d="M361.406 134.124C360.541 134.124 359.665 134.049 358.784 133.894C350.625 132.456 345.178 124.676 346.617 116.518L353.563 77.125C355.001 68.966 362.783 63.515 370.939 64.958C379.098 66.396 384.545 74.176 383.106 82.334L376.16 121.727C374.877 129.003 368.548 134.124 361.406 134.124V134.124Z" fill="#453D83"/>
<path d="M424 256H296C287.716 256 281 262.716 281 271V351C281 359.284 287.716 366 296 366H424C432.284 366 439 359.284 439 351V271C439 262.716 432.284 256 424 256Z" fill="#FF9100"/>
<path d="M360 302C351.716 302 345 295.284 345 287V247C345 238.716 351.716 232 360 232C368.284 232 375 238.716 375 247V287C375 295.284 368.284 302 360 302Z" fill="#453D83"/>
<path d="M216 88H88C79.716 88 73 94.716 73 103V183C73 191.284 79.716 198 88 198H216C224.284 198 231 191.284 231 183V103C231 94.716 224.284 88 216 88Z" fill="#FED843"/>
<path d="M152 134C143.716 134 137 127.284 137 119V79C137 70.716 143.716 64 152 64C160.284 64 167 70.716 167 79V119C167 127.284 160.284 134 152 134Z" fill="#5F55AF"/>
<path d="M238.134 327.553L224.242 248.768C223.552 244.85 221.332 241.367 218.074 239.085C214.816 236.803 210.783 235.909 206.866 236.6L80.8101 258.828C76.8921 259.518 73.4091 261.738 71.1271 264.996C68.8451 268.255 67.9511 272.287 68.6421 276.204L82.5341 354.989C83.8171 362.266 90.1461 367.386 97.2881 367.386C98.1531 367.386 99.0291 367.311 99.9101 367.156L225.966 344.929C234.125 343.491 239.572 335.711 238.134 327.553V327.553Z" fill="#97DE3D"/>
<path d="M149.204 293.246C142.061 293.246 135.733 288.126 134.45 280.848L127.504 241.455C126.066 233.297 131.513 225.517 139.671 224.079C147.829 222.639 155.609 228.087 157.047 236.246L163.993 275.639C165.431 283.797 159.984 291.577 151.826 293.015C150.945 293.17 150.069 293.246 149.204 293.246V293.246Z" fill="#5F55AF"/>
</svg>
