<svg width="96" height="96" viewBox="0 0 96 96" fill="none" xmlns="http://www.w3.org/2000/svg">
<path d="M35.0906 15.4497H62.6842L78.6928 31.4584V92.0032H17.3047L17.3306 15.4497H24.9198" fill="#EEEFEE"/>
<path d="M78.693 92.6516H17.3049C17.1329 92.6516 16.9679 92.5832 16.8462 92.4616C16.7246 92.34 16.6562 92.175 16.6562 92.0029L16.6835 15.4494C16.6835 15.2774 16.7518 15.1124 16.8735 14.9908C16.9951 14.8691 17.1601 14.8008 17.3321 14.8008H24.9213C25.0934 14.8008 25.2583 14.8691 25.38 14.9908C25.5016 15.1124 25.57 15.2774 25.57 15.4494C25.57 15.6215 25.5016 15.7864 25.38 15.9081C25.2583 16.0297 25.0934 16.0981 24.9213 16.0981H17.9808L17.9535 91.3543H78.0444V31.7266L62.4158 16.0981H35.0908C34.9188 16.0981 34.7538 16.0297 34.6322 15.9081C34.5105 15.7864 34.4422 15.6215 34.4422 15.4494C34.4422 15.2774 34.5105 15.1124 34.6322 14.9908C34.7538 14.8691 34.9188 14.8008 35.0908 14.8008H62.6844C62.7696 14.8006 62.854 14.8173 62.9328 14.8498C63.0116 14.8823 63.0833 14.93 63.1436 14.9902L79.1523 31.0053C79.2124 31.0657 79.2602 31.1373 79.2927 31.2161C79.3252 31.2949 79.3418 31.3793 79.3417 31.4646V92.0094C79.34 92.1803 79.2709 92.3437 79.1494 92.4639C79.0279 92.5841 78.8639 92.6516 78.693 92.6516Z" fill="#323C6B"/>
<path d="M70.6899 50.7241H25.3078C25.1358 50.7241 24.9708 50.6557 24.8492 50.5341C24.7275 50.4124 24.6592 50.2474 24.6592 50.0754C24.6592 49.9034 24.7275 49.7384 24.8492 49.6167C24.9708 49.4951 25.1358 49.4268 25.3078 49.4268H70.6899C70.8619 49.4268 71.0269 49.4951 71.1486 49.6167C71.2702 49.7384 71.3385 49.9034 71.3385 50.0754C71.3385 50.2474 71.2702 50.4124 71.1486 50.5341C71.0269 50.6557 70.8619 50.7241 70.6899 50.7241Z" fill="#323C6B"/>
<path d="M70.6899 61.1025H25.3078C25.1358 61.1025 24.9708 61.0341 24.8492 60.9125C24.7275 60.7908 24.6592 60.6259 24.6592 60.4538C24.6592 60.2818 24.7275 60.1168 24.8492 59.9952C24.9708 59.8735 25.1358 59.8052 25.3078 59.8052H70.6899C70.8619 59.8052 71.0269 59.8735 71.1486 59.9952C71.2702 60.1168 71.3385 60.2818 71.3385 60.4538C71.3385 60.6259 71.2702 60.7908 71.1486 60.9125C71.0269 61.0341 70.8619 61.1025 70.6899 61.1025Z" fill="#323C6B"/>
<path d="M70.6899 71.4809H25.3078C25.1358 71.4809 24.9708 71.4126 24.8492 71.2909C24.7275 71.1693 24.6592 71.0043 24.6592 70.8322C24.6592 70.6602 24.7275 70.4952 24.8492 70.3736C24.9708 70.2519 25.1358 70.1836 25.3078 70.1836H70.6899C70.8619 70.1836 71.0269 70.2519 71.1486 70.3736C71.2702 70.4952 71.3385 70.6602 71.3385 70.8322C71.3385 71.0043 71.2702 71.1693 71.1486 71.2909C71.0269 71.4126 70.8619 71.4809 70.6899 71.4809Z" fill="#323C6B"/>
<path d="M70.6899 81.8593H25.3078C25.1358 81.8593 24.9708 81.791 24.8492 81.6693C24.7275 81.5477 24.6592 81.3827 24.6592 81.2107C24.6592 81.0386 24.7275 80.8736 24.8492 80.752C24.9708 80.6304 25.1358 80.562 25.3078 80.562H70.6899C70.8619 80.562 71.0269 80.6304 71.1486 80.752C71.2702 80.8736 71.3385 81.0386 71.3385 81.2107C71.3385 81.3827 71.2702 81.5477 71.1486 81.6693C71.0269 81.791 70.8619 81.8593 70.6899 81.8593Z" fill="#323C6B"/>
<path d="M26.8104 21.8361L22.9639 12.3593L32.8934 8.32861L36.736 17.795L26.8104 21.8361Z" fill="#EA6453"/>
<path d="M26.8103 22.4864C26.6812 22.4863 26.5552 22.4478 26.4482 22.3757C26.3412 22.3036 26.2581 22.2012 26.2096 22.0816L22.3631 12.6036C22.2985 12.4444 22.2996 12.2661 22.3662 12.1078C22.4329 11.9495 22.5596 11.8241 22.7186 11.759L32.6481 7.72964C32.8074 7.66506 32.9858 7.66636 33.1442 7.73325C33.3026 7.80015 33.4279 7.92716 33.4926 8.0864L37.3339 17.5567C37.3986 17.7158 37.3975 17.8941 37.3308 18.0524C37.2642 18.2108 37.1375 18.3362 36.9785 18.4012L27.0542 22.4436C26.9764 22.4736 26.8936 22.4882 26.8103 22.4864ZM23.8096 12.7139L27.1683 20.988L35.8913 17.436L32.5365 9.17483L23.8096 12.7139Z" fill="#323C6B"/>
<path d="M30.0986 28.4172L41.1957 43.0287L38.9721 24.8159L30.0986 28.4172Z" fill="#BBBBCD"/>
<path d="M41.1959 43.6774C41.0952 43.6774 40.9959 43.654 40.9059 43.609C40.8158 43.5639 40.7374 43.4985 40.677 43.418L29.5786 28.8104C29.5183 28.7311 29.4771 28.6389 29.4581 28.5411C29.4392 28.4432 29.443 28.3424 29.4694 28.2462C29.4957 28.1501 29.5439 28.0614 29.6101 27.9869C29.6763 27.9124 29.7587 27.8541 29.8511 27.8167L38.7246 24.2154C38.8171 24.1784 38.9167 24.163 39.0161 24.1702C39.1154 24.1774 39.2118 24.207 39.298 24.2569C39.3838 24.3076 39.4567 24.3774 39.5112 24.4609C39.5656 24.5444 39.6001 24.6392 39.6119 24.7382L41.8355 42.951C41.8468 43.0425 41.8384 43.1355 41.8108 43.2235C41.7833 43.3116 41.7373 43.3928 41.6759 43.4617C41.6145 43.5306 41.5392 43.5856 41.4548 43.623C41.3705 43.6604 41.2791 43.6794 41.1869 43.6787L41.1959 43.6774ZM31.1276 28.7001L40.2606 40.7261L38.4314 25.7371L31.1276 28.7001Z" fill="#323C6B"/>
<path d="M35.1246 1.96289L16.9326 9.34581L22.9663 12.3581L32.8959 8.32743L35.1246 1.96289Z" fill="#FE7058"/>
<path d="M22.9623 13.0069C22.8614 13.0068 22.7619 12.9833 22.6717 12.9381L16.6418 9.92577C16.53 9.87012 16.4367 9.78337 16.373 9.67594C16.3092 9.56852 16.2779 9.44498 16.2827 9.32018C16.2875 9.19538 16.3282 9.07462 16.4 8.9724C16.4717 8.87018 16.5715 8.79085 16.6872 8.74393L34.8805 1.36101C34.9961 1.31415 35.1228 1.3016 35.2453 1.32487C35.3678 1.34813 35.481 1.40624 35.5714 1.49221C35.6618 1.57819 35.7254 1.68839 35.7547 1.80961C35.7841 1.93084 35.7778 2.05795 35.7367 2.17572L33.508 8.54156C33.478 8.62881 33.4297 8.70865 33.3664 8.77577C33.3031 8.84288 33.2262 8.89571 33.1409 8.93074L23.2113 12.9589C23.1322 12.9909 23.0476 13.0072 22.9623 13.0069ZM18.5073 9.40556L22.9947 11.646L32.3806 7.83712L34.0373 3.10328L18.5073 9.40556Z" fill="#323C6B"/>
<path d="M82.5842 54.8928C82.4122 54.8928 82.2472 54.8244 82.1255 54.7028C82.0039 54.5811 81.9355 54.4162 81.9355 54.2441V53.4333C81.9355 53.2613 82.0039 53.0963 82.1255 52.9747C82.2472 52.853 82.4122 52.7847 82.5842 52.7847C82.7562 52.7847 82.9212 52.853 83.0429 52.9747C83.1645 53.0963 83.2328 53.2613 83.2328 53.4333V54.2441C83.2328 54.4162 83.1645 54.5811 83.0429 54.7028C82.9212 54.8244 82.7562 54.8928 82.5842 54.8928Z" fill="#323C6B"/>
<path d="M82.5842 68.238C82.4122 68.238 82.2472 68.1697 82.1255 68.048C82.0039 67.9264 81.9355 67.7614 81.9355 67.5894V57.0813C81.9355 56.9092 82.0039 56.7442 82.1255 56.6226C82.2472 56.501 82.4122 56.4326 82.5842 56.4326C82.7562 56.4326 82.9212 56.501 83.0429 56.6226C83.1645 56.7442 83.2328 56.9092 83.2328 57.0813V67.5894C83.2328 67.7614 83.1645 67.9264 83.0429 68.048C82.9212 68.1697 82.7562 68.238 82.5842 68.238Z" fill="#323C6B"/>
<path d="M43.0809 12.2065H42.0002C41.8282 12.2065 41.6632 12.1381 41.5415 12.0165C41.4199 11.8948 41.3516 11.7299 41.3516 11.5578C41.3516 11.3858 41.4199 11.2208 41.5415 11.0992C41.6632 10.9775 41.8282 10.9092 42.0002 10.9092H43.0809C43.2529 10.9092 43.4179 10.9775 43.5395 11.0992C43.6612 11.2208 43.7295 11.3858 43.7295 11.5578C43.7295 11.7299 43.6612 11.8948 43.5395 12.0165C43.4179 12.1381 43.2529 12.2065 43.0809 12.2065Z" fill="#323C6B"/>
<path d="M56.5947 12.2065H46.1086C45.9366 12.2065 45.7716 12.1381 45.6499 12.0165C45.5283 11.8948 45.46 11.7299 45.46 11.5578C45.46 11.3858 45.5283 11.2208 45.6499 11.0992C45.7716 10.9775 45.9366 10.9092 46.1086 10.9092H56.5947C56.7667 10.9092 56.9317 10.9775 57.0533 11.0992C57.175 11.2208 57.2433 11.3858 57.2433 11.5578C57.2433 11.7299 57.175 11.8948 57.0533 12.0165C56.9317 12.1381 56.7667 12.2065 56.5947 12.2065Z" fill="#323C6B"/>
<path d="M62.6855 31.4636H78.6955L62.6855 15.4536V31.4636Z" fill="#D5D6DB"/>
<path d="M78.695 32.1121H62.6838C62.5118 32.1121 62.3468 32.0438 62.2251 31.9221C62.1035 31.8005 62.0352 31.6355 62.0352 31.4635V15.4535C62.0349 15.3251 62.0728 15.1994 62.1441 15.0925C62.2154 14.9857 62.3168 14.9023 62.4354 14.8532C62.5541 14.804 62.6847 14.7911 62.8107 14.8162C62.9366 14.8414 63.0523 14.9033 63.143 14.9943L79.1543 31.0055C79.2452 31.0962 79.3072 31.2119 79.3323 31.3379C79.3574 31.4639 79.3446 31.5945 79.2954 31.7131C79.2462 31.8318 79.1629 31.9332 79.056 32.0045C78.9491 32.0757 78.8235 32.1136 78.695 32.1134V32.1121ZM63.3325 30.8148H77.1292L63.3325 17.0194V30.8148Z" fill="#323C6B"/>
<path d="M45.0965 22.3305C43.5509 20.256 41.3466 18.768 38.8447 18.1101C36.3428 17.4523 33.6917 17.6637 31.3257 18.7097C28.8996 19.6084 26.8507 21.3045 25.5148 23.5201C24.1788 25.7356 23.6351 28.3393 23.9726 30.9043L45.0965 22.3305Z" fill="#FE7058"/>
<path d="M23.9731 31.5519C23.8201 31.552 23.672 31.4981 23.555 31.3995C23.438 31.301 23.3595 31.1643 23.3335 31.0136C22.9757 28.3034 23.5471 25.5519 24.9544 23.2083C26.3617 20.8646 28.5219 19.0672 31.0823 18.1094C33.5861 17.0112 36.3883 16.7946 39.0311 17.4949C41.674 18.1952 44.0012 19.771 45.6328 21.9649C45.6876 22.0449 45.7237 22.1362 45.7386 22.2321C45.7534 22.3279 45.7466 22.4259 45.7186 22.5187C45.6906 22.6116 45.6421 22.697 45.5767 22.7686C45.5114 22.8403 45.4308 22.8963 45.3409 22.9327L24.2183 31.5052C24.1403 31.5364 24.057 31.5522 23.9731 31.5519ZM36.0289 18.4337C34.5 18.4358 32.9859 18.7336 31.5701 19.3107C29.4179 20.1179 27.5762 21.585 26.3081 23.5022C25.0401 25.4194 24.4108 27.6884 24.5102 29.9848L44.0708 22.0454C43.079 20.8884 41.8438 19.9647 40.4537 19.3403C39.0635 18.716 37.5526 18.4064 36.0289 18.4337Z" fill="#323C6B"/>
</svg>
