<svg width="96" height="111" viewBox="0 0 113 129" fill="none" xmlns="http://www.w3.org/2000/svg">
<path d="M84.4063 93.6689L69.495 79.0604V61.2896H43.4947V79.0659L28.749 93.6689H84.4063Z" fill="#FFDDCE"/>
<path d="M81.695 93.4061L68.3272 89.8883L56.5 102.044L36.0507 81.0243L14.3131 86.7432C5.82841 88.9755 0 95.9531 0 103.879V122.68C0 126.171 3.15693 129 7.05115 129H16.6141L18.3375 127.898H19.2339L20.9573 129H92.0326L94.5625 127.382H96.6605V111.325C96.6608 103.037 90.5668 95.7407 81.695 93.4061V93.4061Z" fill="#407093"/>
<path d="M98.6883 86.7424L76.953 81.0228L66.8486 91.4081L80.3514 94.9614C88.8355 97.1939 94.6631 104.172 94.6631 112.097V127.382H96.3766V129H105.949C109.843 129 113 126.17 113 122.68V103.878C113 95.9526 107.172 88.975 98.6883 86.7424V86.7424Z" fill="#365E7D"/>
<path d="M20.9577 129V118.663C20.9577 117.588 19.9854 116.716 18.786 116.716C17.5866 116.716 16.6143 117.588 16.6143 118.663V129H20.9577Z" fill="#365E7D"/>
<path d="M96.3766 129V118.663C96.3766 117.588 95.4043 116.716 94.2049 116.716C93.0055 116.716 92.0332 117.588 92.0332 118.663V129H96.3766Z" fill="#365E7D"/>
<path d="M17.3234 38.0915L15.0968 35.8909H10.338L8.11146 38.0915L5.17716 53.5287C4.90028 54.9857 6.15254 56.3158 7.8017 56.3158H17.6326C19.2817 56.3158 20.534 54.9857 20.2571 53.5287L17.3234 38.0915Z" fill="#E4F6FF"/>
<path d="M14.8893 34.3389V14.8186C14.8893 13.7435 13.917 12.872 12.7176 12.872C11.5182 12.872 10.5459 13.7435 10.5459 14.8186V34.3389H14.8893Z" fill="#407093"/>
<path d="M68.5324 13.2544H68.0534H44.9374H44.4584C35.7553 13.2544 28.7002 19.5782 28.7002 27.3792V27.6017V41.0033L31.3062 43.0613H84.2903V27.6017V27.3792C84.2906 19.5785 77.2352 13.2544 68.5324 13.2544V13.2544Z" fill="#EFC984"/>
<path d="M68.5328 13.2544H68.0538H66.0137V43.0613H81.8852L84.2907 41.0033V27.6017V27.3792C84.291 19.5785 77.2356 13.2544 68.5328 13.2544V13.2544Z" fill="#EABC6B"/>
<path d="M56.5001 71.5738C56.7621 71.5738 57.0227 71.5698 57.2824 71.5619C63.4998 68.0225 67.723 61.9204 68.0993 54.9111V30.2406H38.2006V36.7329C38.2006 39.0915 36.0674 41.0033 33.4364 41.0033H28.7051V47.9867C28.7051 49.771 30.3188 51.2177 32.3098 51.2177C32.9377 51.2177 33.449 51.6589 33.4884 52.2208C34.2485 63.0225 44.2575 71.5738 56.5001 71.5738Z" fill="#FFDDCE"/>
<path d="M79.5643 41.0033C76.933 41.0033 74.8001 39.0915 74.8001 36.7329V30.2406H66.0138V54.2762C65.6152 61.7017 60.8479 68.0968 53.9668 71.446C54.7994 71.5277 55.6435 71.5738 56.5003 71.5738C68.7429 71.5738 78.7519 63.0225 79.512 52.2208C79.5516 51.6589 80.0627 51.2177 80.6906 51.2177C82.6813 51.2177 84.2953 49.7713 84.2953 47.9867V41.0033H79.5643Z" fill="#FFCBBE"/>
<path d="M68.0995 21.9509V17.1391C65.4544 17.1204 63.3162 15.1945 63.3162 12.8191V4.17153L61.287 1.25718L57.2412 0.103742C56.7561 -0.0345806 56.2352 -0.0345806 55.7501 0.103742L11.7057 12.6608C9.24873 13.3613 9.49665 16.5475 12.0383 16.9355L56.4958 23.7223L68.0995 21.9509Z" fill="#407093"/>
<path d="M68.0993 17.2134L61.6935 16.5031C58.2411 16.1204 54.7494 16.1204 51.2974 16.5034L26.9189 19.2073V28.9448C26.9189 30 27.8732 30.8554 29.0505 30.8554H68.0993V17.2134Z" fill="#4A80AA"/>
<path d="M101.286 12.6609L61.2871 1.2572V12.6825C61.2871 15.0297 63.4001 16.933 66.0136 16.9514V22.2696L100.953 16.9358C103.495 16.5472 103.743 13.3613 101.286 12.6609V12.6609Z" fill="#365E7D"/>
<path d="M66.0137 16.9821V30.8554H83.9498C85.127 30.8554 86.0813 30 86.0813 28.9449V19.2071L66.0137 16.9821Z" fill="#407093"/>
<path d="M17.3229 38.0915H8.11133V32.6715C8.11133 31.5198 9.15277 30.5863 10.4376 30.5863H14.9964C16.2812 30.5863 17.3227 31.5198 17.3227 32.6715V38.0915H17.3229Z" fill="#FFE07D"/>
<path d="M69.4954 72.5547C69.4954 80.1153 67.0468 87.5134 62.447 93.8508L56.5 102.044L89.6799 84.3718L69.4954 72.5547Z" fill="#4A80AA"/>
<path d="M43.5049 72.5547C43.5049 80.1153 45.9534 87.5134 50.5532 93.8508L56.5002 102.044L23.3203 84.3718L43.5049 72.5547Z" fill="#4A80AA"/>
<path d="M67.5758 84.0039C64.1634 84.6774 60.4241 85.0508 56.5003 85.0508C52.5769 85.0508 48.8372 84.6774 45.4248 84.0039C46.6096 87.4663 48.3268 90.7835 50.553 93.8508L56.5003 102.044L62.4473 93.8508C64.6739 90.7835 66.391 87.4663 67.5758 84.0039Z" fill="#F4FBFF"/>
</svg>
